<?xml version="1.0" encoding="UTF-8"?>
<svg id="Layer_2" data-name="Layer 2" xmlns="http://www.w3.org/2000/svg" viewBox="0 0 609.77 488.33">
  <defs>
    <style>
      .cls-1 {
        fill: #574b4f;
      }

      .cls-2 {
        fill: #f5d7be;
      }

      .cls-3 {
        fill: #fdd8ac;
      }

      .cls-4 {
        fill: #e6bca5;
      }

      .cls-5 {
        fill: #3c6f8c;
      }

      .cls-6 {
        fill: #fdbd71;
      }

      .cls-7 {
        fill: #a89996;
      }

      .cls-8 {
        fill: #473b38;
      }

      .cls-9 {
        fill: #9e9899;
      }

      .cls-10 {
        fill: #a4d0eb;
      }

      .cls-11 {
        fill: #fff;
      }

      .cls-12 {
        fill: #736469;
      }

      .cls-13 {
        fill: #d5ebf7;
      }

      .cls-14 {
        fill: #b59ab5;
      }

      .cls-15 {
        fill: #80a34b;
      }

      .cls-16 {
        fill: #bcbfba;
      }

      .cls-17 {
        fill: #d4b4d4;
      }

      .cls-18 {
        fill: #785e78;
      }

      .cls-19 {
        fill: #f19f46;
      }

      .cls-20 {
        fill: #4e8fb5;
      }

      .cls-21 {
        fill: #f24d59;
      }

      .cls-22 {
        fill: #d12b45;
      }

      .cls-23 {
        fill: #f9f9f3;
      }

      .cls-24 {
        fill: #abd15c;
      }
    </style>
  </defs>
  <g id="_Слой_1" data-name="Слой 1">
    <g>
      <path class="cls-16" d="M111.18,360.31c36.98,74.39,113.74,125.53,202.46,125.53s165.48-51.13,202.46-125.53H111.18Z"/>
      <g>
        <rect class="cls-17" x="327.39" y="161.5" width="20.38" height="15.24" rx="6.86" ry="6.86"/>
        <path class="cls-17" d="M301.06,121.78h-13.64V49.9c0-20.65-16.74-37.4-37.4-37.4h-95.8c-20.21,0-36.6,16.38-36.6,36.6v57.05c0,20.65,16.74,37.4,37.4,37.4h112.89v1.14c0,8.14,6.6,14.75,14.75,14.75h18.4c8.14,0,14.75-6.6,14.75-14.75v-8.16c0-8.14-6.6-14.75-14.75-14.75Z"/>
      </g>
      <g>
        <rect class="cls-14" x="277.86" y="380.38" width="13.83" height="47.91"/>
        <rect class="cls-18" x="264.03" y="380.38" width="13.83" height="47.91"/>
        <path class="cls-8" d="M291.69,430.79h-13.83c-1.38,0-2.5-1.12-2.5-2.5v-47.91c0-1.38,1.12-2.5,2.5-2.5h13.83c1.38,0,2.5,1.12,2.5,2.5v47.91c0,1.38-1.12,2.5-2.5,2.5ZM280.35,425.79h8.83v-42.91h-8.83v42.91Z"/>
        <path class="cls-8" d="M277.85,430.79h-13.83c-1.38,0-2.5-1.12-2.5-2.5v-47.91c0-1.38,1.12-2.5,2.5-2.5h13.83c1.38,0,2.5,1.12,2.5,2.5v47.91c0,1.38-1.12,2.5-2.5,2.5ZM266.53,425.79h8.83v-42.91h-8.83v42.91Z"/>
      </g>
      <g>
        <path class="cls-7" d="M395.44,362.81h-226v-193.06h5v188.06h216V49.96c-24.58-9-50.42-13.56-76.8-13.56-50.44,0-99.82,17.27-139.2,48.66v63.95h-5v-66.34l.93-.75c40.41-32.57,91.29-50.51,143.27-50.51,27.57,0,54.55,4.87,80.18,14.48l1.62.61v316.32Z"/>
        <path class="cls-7" d="M379.53,362.81h-194.18V70.81l1.11-.74c37.67-25.3,81.65-38.67,127.18-38.67,21.76,0,43.32,3.07,64.09,9.14l1.8.53v321.75ZM190.35,357.81h184.18V44.82c-19.76-5.59-40.24-8.42-60.89-8.42-44.09,0-86.69,12.82-123.29,37.08v284.33Z"/>
        <path class="cls-7" d="M292.89,362.81h-20.91V35.18l2.07-.36c5.27-.92,10.68-1.67,16.09-2.22l2.75-.28v330.49ZM276.98,357.81h10.91V37.87c-3.66.42-7.32.93-10.91,1.52v318.41Z"/>
        <rect class="cls-7" x="187.85" y="171.81" width="86.63" height="5"/>
        <rect class="cls-7" x="290.39" y="171.81" width="86.63" height="5"/>
        <rect class="cls-7" x="219.61" y="187.47" width="54.88" height="5"/>
        <rect class="cls-7" x="187.85" y="187.47" width="13.35" height="5"/>
        <rect class="cls-7" x="111.27" y="201.14" width="48.75" height="5"/>
        <rect class="cls-7" x="146.14" y="213.81" width="27.76" height="5"/>
        <rect class="cls-7" x="321.27" y="187.47" width="55.76" height="5"/>
        <rect class="cls-7" x="290.39" y="187.47" width="15.21" height="5"/>
        <rect class="cls-7" x="127.1" y="280.64" width="44.83" height="5"/>
      </g>
      <path class="cls-7" d="M533.29,218.53c-19.73-105.54-112.11-182.14-219.66-182.14-78.95,0-152.85,42.35-192.86,110.52l-4.31-2.53c19.82-33.77,48.15-62.07,81.95-81.84,34.82-20.38,74.66-31.14,115.23-31.14,109.95,0,204.39,78.32,224.57,186.22l-4.91.92Z"/>
      <path class="cls-7" d="M101.06,190.75l-4.75-1.54c3.08-9.48,6.83-18.85,11.13-27.85l4.51,2.16c-4.21,8.8-7.88,17.97-10.89,27.24Z"/>
      <path class="cls-7" d="M539.86,292.02l-4.95-.7c1.46-10.35,2.2-20.93,2.2-31.46,0-6.45-.28-12.96-.83-19.36l4.98-.43c.56,6.54.84,13.19.84,19.78,0,10.76-.76,21.58-2.25,32.16Z"/>
      <path class="cls-7" d="M89.58,304.79c-1.48-7.42-2.6-15-3.33-22.56-.72-7.38-1.08-14.91-1.08-22.37,0-14.12,1.3-28.27,3.86-42.04l4.92.91c-2.5,13.47-3.77,27.3-3.77,41.12,0,7.3.36,14.66,1.06,21.88.72,7.39,1.82,14.81,3.26,22.06l-4.9.98Z"/>
      <g>
        <path class="cls-23" d="M164.23,2.5h93.21c22.07,0,39.98,17.91,39.98,39.98v82.19c0,4.9-3.98,8.87-8.87,8.87h-120.94c-22.07,0-39.98-17.91-39.98-39.98v-54.47c0-20.2,16.4-36.6,36.6-36.6Z"/>
        <rect class="cls-23" x="337.39" y="151.5" width="20.38" height="15.24" rx="6.86" ry="6.86"/>
        <path class="cls-8" d="M284.8,136.04h-119.77c-22,0-39.9-17.9-39.9-39.9v-56.25c0-22,17.9-39.9,39.9-39.9h60.13c1.38,0,2.5,1.12,2.5,2.5s-1.12,2.5-2.5,2.5h-60.13c-19.24,0-34.9,15.65-34.9,34.9v56.25c0,19.24,15.65,34.9,34.9,34.9h119.77c5.58,0,10.12-4.54,10.12-10.12v-46.1c0-1.38,1.12-2.5,2.5-2.5s2.5,1.12,2.5,2.5v46.1c0,8.34-6.79,15.12-15.12,15.12Z"/>
        <path class="cls-8" d="M297.43,54.64c-1.38,0-2.5-1.12-2.5-2.5v-12.25c0-19.24-15.65-34.9-34.9-34.9h-11.8c-1.38,0-2.5-1.12-2.5-2.5s1.12-2.5,2.5-2.5h11.8c22,0,39.9,17.9,39.9,39.9v12.25c0,1.38-1.12,2.5-2.5,2.5Z"/>
        <path class="cls-8" d="M350.91,169.24h-6.66c-5.16,0-9.36-4.2-9.36-9.36v-1.52c0-5.16,4.2-9.36,9.36-9.36h6.66c5.16,0,9.36,4.2,9.36,9.36v1.52c0,5.16-4.2,9.36-9.36,9.36ZM344.25,154c-2.4,0-4.36,1.96-4.36,4.36v1.52c0,2.4,1.96,4.36,4.36,4.36h6.66c2.4,0,4.36-1.96,4.36-4.36v-1.52c0-2.4-1.96-4.36-4.36-4.36h-6.66Z"/>
        <path class="cls-23" d="M293.66,111.78h16.41c8.69,0,15.74,7.05,15.74,15.74v6.17c0,8.69-7.05,15.74-15.74,15.74h-16.41c-8.69,0-15.74-7.05-15.74-15.74v-6.17c0-8.69,7.05-15.74,15.74-15.74Z"/>
        <path class="cls-8" d="M311.06,151.93h-18.4c-9.51,0-17.25-7.74-17.25-17.25v-8.1c0-1.38,1.12-2.5,2.5-2.5s2.5,1.12,2.5,2.5v8.1c0,6.75,5.49,12.25,12.25,12.25h18.4c6.75,0,12.25-5.49,12.25-12.25v-8.16c0-6.75-5.49-12.25-12.25-12.25h-13.64c-1.38,0-2.5-1.12-2.5-2.5s1.12-2.5,2.5-2.5h13.64c9.51,0,17.25,7.74,17.25,17.25v8.16c0,9.51-7.74,17.25-17.25,17.25Z"/>
        <g>
          <path class="cls-21" d="M219.4,55.01h-52.58c-7.75,0-14.04-6.29-14.04-14.04h0c0-7.76,6.29-14.04,14.04-14.04h52.58c7.75,0,14.04,6.29,14.04,14.04h0c0,7.76-6.29,14.04-14.04,14.04Z"/>
          <path class="cls-21" d="M258.25,55.01h-5.08c-7.75,0-14.04-6.29-14.04-14.04h0c0-7.76,6.29-14.04,14.04-14.04h5.08c7.75,0,14.04,6.29,14.04,14.04h0c0,7.76-6.29,14.04-14.04,14.04Z"/>
        </g>
        <path class="cls-8" d="M266.53,79.95h-108c-1.38,0-2.5-1.12-2.5-2.5s1.12-2.5,2.5-2.5h108c1.38,0,2.5,1.12,2.5,2.5s-1.12,2.5-2.5,2.5Z"/>
        <path class="cls-8" d="M243.86,94.25h-85.33c-1.38,0-2.5-1.12-2.5-2.5s1.12-2.5,2.5-2.5h85.33c1.38,0,2.5,1.12,2.5,2.5s-1.12,2.5-2.5,2.5Z"/>
        <path class="cls-8" d="M229.09,112.29h-28.67c-1.38,0-2.5-1.12-2.5-2.5s1.12-2.5,2.5-2.5h28.67c1.38,0,2.5,1.12,2.5,2.5s-1.12,2.5-2.5,2.5Z"/>
        <path class="cls-8" d="M127.63,81.65h-35.7c-1.38,0-2.5-1.12-2.5-2.5s1.12-2.5,2.5-2.5h35.7c1.38,0,2.5,1.12,2.5,2.5s-1.12,2.5-2.5,2.5Z"/>
        <path class="cls-8" d="M75.27,81.65h-13.67c-1.38,0-2.5-1.12-2.5-2.5s1.12-2.5,2.5-2.5h13.67c1.38,0,2.5,1.12,2.5,2.5s-1.12,2.5-2.5,2.5Z"/>
        <path class="cls-8" d="M115.28,95.28h-29.01c-1.38,0-2.5-1.12-2.5-2.5s1.12-2.5,2.5-2.5h29.01c1.38,0,2.5,1.12,2.5,2.5s-1.12,2.5-2.5,2.5Z"/>
        <path class="cls-8" d="M327.1,14.68h-41.97c-1.38,0-2.5-1.12-2.5-2.5s1.12-2.5,2.5-2.5h41.97c1.38,0,2.5,1.12,2.5,2.5s-1.12,2.5-2.5,2.5Z"/>
        <path class="cls-8" d="M310.85,28.64h-15.74c-1.38,0-2.5-1.12-2.5-2.5s1.12-2.5,2.5-2.5h15.74c1.38,0,2.5,1.12,2.5,2.5s-1.12,2.5-2.5,2.5Z"/>
      </g>
      <path class="cls-13" d="M295.57,360.31H111.18c-11.45,7.2-31.21,19-31.21,19h0c-29.35,13.87-28.14,56.04,1.95,68.21l48.46,19.6,44.6-28.82s.02.01.03.02l120.55-78.01Z"/>
      <path class="cls-10" d="M220.28,383.48h7.27c1.21,0,1.68,1.57.67,2.24l-61.37,40.62c-3.26,2.16-7.08,3.31-10.98,3.31H60.14c-4.45,0-6.06-5.88-2.22-8.14l10.37-6.11,151.98-31.91Z"/>
      <ellipse class="cls-10" cx="109.06" cy="451.35" rx="26.46" ry="10.79"/>
      <path class="cls-8" d="M298.24,362.81H111.18c-1.38,0-2.5-1.12-2.5-2.5s1.12-2.5,2.5-2.5h187.06c1.38,0,2.5,1.12,2.5,2.5s-1.12,2.5-2.5,2.5Z"/>
      <path class="cls-7" d="M313.64,488.33c-44.66,0-87.93-12.89-125.12-37.27-1.55-1.01-3.12-2.07-4.67-3.15l2.84-4.11c1.52,1.05,3.06,2.09,4.57,3.08,36.37,23.85,78.69,36.46,122.38,36.46,104.55,0,196.41-74.06,218.44-176.09l4.89,1.05c-10.84,50.24-38.87,95.91-78.91,128.61-40.61,33.16-91.89,51.42-144.42,51.42Z"/>
      <path class="cls-10" d="M130.38,471.36h0c0,6.22,6.91,9.96,12.11,6.55l160.11-104.67-14.33-8.82-154.33,100.38c-2.22,1.44-3.56,3.91-3.56,6.56Z"/>
      <path class="cls-8" d="M120.27,476.14c-.82,0-1.62-.4-2.1-1.14-.75-1.16-.41-2.71.75-3.46l165.48-106.77c1.16-.75,2.71-.42,3.46.75.75,1.16.41,2.71-.75,3.46l-165.48,106.77c-.42.27-.89.4-1.35.4Z"/>
      <path class="cls-8" d="M151.47,474.55c-.81,0-1.61-.4-2.09-1.13-.76-1.15-.44-2.7.72-3.46l151.14-99.31c1.16-.76,2.7-.44,3.46.72.76,1.15.44,2.7-.72,3.46l-151.14,99.31c-.42.28-.9.41-1.37.41Z"/>
      <g>
        <polygon class="cls-16" points="225.36 367.64 129.92 367.51 57.92 406.3 162.92 406.3 225.36 367.64"/>
        <path class="cls-14" d="M220.28,383.48l-57.36,35.92v-13.1l62.43-38.66v7.33c0,3.55-1.95,6.82-5.08,8.5Z"/>
        <path class="cls-18" d="M57.92,406.3h105v13.1h-97.43c-4.18,0-7.57-3.39-7.57-7.57v-5.53h0Z"/>
        <polygon class="cls-14" points="6.14 306.07 80.42 271.68 129.92 367.51 57.92 406.3 6.14 306.07"/>
        <path class="cls-13" d="M23.05,305.96l54.23-25.11,43.27,83.76-59.67,32.15-41.45-80.23c-2.02-3.91-.37-8.72,3.62-10.57Z"/>
        <path class="cls-8" d="M62.76,399.21c-.91,0-1.78-.5-2.22-1.36l-44.33-86.07c-.31-.61-.36-1.31-.14-1.96.22-.64.7-1.17,1.31-1.46l60.27-27.91c1.25-.58,2.74-.04,3.32,1.22.58,1.25.03,2.74-1.22,3.32l-57.9,26.81,43.14,83.75c.63,1.23.15,2.74-1.08,3.37-.37.19-.76.28-1.14.28Z"/>
        <path class="cls-18" d="M6.14,306.07h0c-3.27,1.56-4.59,5.52-2.91,8.73l47.26,90.71c1.56,3,4.23,5.26,7.43,6.33h0v-5.53L6.14,306.07Z"/>
        <path class="cls-8" d="M92.04,401.17c-.87,0-1.72-.46-2.18-1.27-.68-1.2-.25-2.73.95-3.4l45.83-25.79c1.2-.68,2.73-.25,3.4.95.68,1.2.25,2.73-.95,3.4l-45.83,25.79c-.39.22-.81.32-1.22.32Z"/>
        <path class="cls-8" d="M112.61,401.17c-.87,0-1.72-.46-2.18-1.27-.68-1.2-.25-2.73.95-3.4l45.83-25.79c1.2-.68,2.73-.25,3.4.95.68,1.2.25,2.73-.95,3.4l-45.83,25.79c-.39.22-.81.32-1.22.32Z"/>
        <path class="cls-8" d="M162.92,408.8H57.92c-1.15,0-2.14-.78-2.42-1.89-.28-1.11.23-2.27,1.24-2.81l72-38.79c.36-.2.77-.3,1.19-.3h0l95.43.14c1.12,0,2.1.74,2.4,1.82.3,1.07-.14,2.22-1.09,2.81l-62.43,38.66c-.39.24-.85.37-1.32.37ZM67.83,403.8h94.38l54.38-33.67-86.04-.12-62.72,33.79Z"/>
        <path class="cls-8" d="M162.92,421.9c-.42,0-.83-.1-1.21-.31-.8-.44-1.29-1.28-1.29-2.19v-13.1c0-.87.45-1.67,1.18-2.13l62.43-38.66c.77-.48,1.74-.5,2.53-.06.79.44,1.28,1.28,1.28,2.18v7.33c0,4.45-2.42,8.53-6.32,10.66l-57.29,35.88c-.41.25-.87.38-1.33.38ZM165.42,407.69v7.19l53.53-33.52s.09-.06.14-.08c2.32-1.25,3.76-3.67,3.76-6.3v-2.84l-57.43,35.56Z"/>
        <path class="cls-8" d="M162.92,421.9h-97.43c-5.55,0-10.07-4.52-10.07-10.07v-5.53c0-1.38,1.12-2.5,2.5-2.5h105c1.38,0,2.5,1.12,2.5,2.5v13.1c0,1.38-1.12,2.5-2.5,2.5ZM60.42,408.8v3.03c0,2.8,2.27,5.07,5.07,5.07h94.93v-8.1H60.42Z"/>
        <path class="cls-8" d="M57.92,408.8c-.25,0-.5-.04-.74-.11-.64-.2-1.17-.65-1.48-1.24L3.92,307.22c-.31-.61-.36-1.31-.14-1.96.22-.64.7-1.17,1.31-1.46l74.27-34.39c1.21-.56,2.66-.07,3.27,1.12l49.5,95.83c.63,1.21.16,2.7-1.04,3.35l-72,38.79c-.37.2-.78.3-1.19.3ZM9.56,307.24l49.41,95.65,67.6-36.42-47.28-91.52-69.73,32.29Z"/>
        <path class="cls-8" d="M57.92,414.33c-.26,0-.53-.04-.79-.13-3.85-1.27-6.99-3.95-8.87-7.54L1.01,315.95c-1.12-2.16-1.32-4.62-.55-6.93.77-2.31,2.41-4.16,4.6-5.21,1.22-.58,2.68-.09,3.3,1.11l51.78,100.23c.18.35.28.75.28,1.15v5.53c0,.8-.39,1.56-1.04,2.03-.43.31-.95.47-1.46.47ZM5.41,310.1c-.08.16-.15.33-.21.5-.34,1.01-.25,2.09.24,3.03l47.26,90.71c.68,1.3,1.6,2.43,2.72,3.32v-.76L5.41,310.1Z"/>
        <polygon class="cls-9" points="189.77 380.42 163.21 380.38 143.18 391.18 172.39 391.18 189.77 380.42"/>
        <path class="cls-10" d="M39.05,314.79l32.5-15.5c3.03-1.44,6.65-.23,8.21,2.74h0c1.63,3.11.36,6.95-2.8,8.49l-32.39,15.72c-3.03,1.47-6.67.27-8.24-2.71l-.11-.22c-1.64-3.13-.35-7,2.84-8.52Z"/>
        <path class="cls-21" d="M47.99,336.69c-1.23,0-2.41-.7-2.96-1.89-.76-1.63-.05-3.57,1.59-4.33l19.69-9.12c1.63-.76,3.57-.04,4.33,1.59.76,1.63.05,3.57-1.59,4.33l-19.69,9.12c-.44.21-.91.3-1.37.3Z"/>
        <path class="cls-24" d="M53.32,346.96c-1.23.02-2.42-.67-2.99-1.85-.78-1.62-.09-3.57,1.53-4.35l19.57-9.37c1.62-.78,3.57-.09,4.35,1.53.78,1.62.09,3.57-1.53,4.35l-19.57,9.37c-.44.21-.91.31-1.36.32Z"/>
        <path class="cls-24" d="M58.58,357.13c-1.23.02-2.42-.66-2.99-1.84-.78-1.62-.1-3.57,1.52-4.36l19.54-9.44c1.62-.78,3.57-.1,4.35,1.52.78,1.62.1,3.57-1.52,4.36l-19.54,9.44c-.44.21-.9.32-1.36.33Z"/>
        <path class="cls-24" d="M64.04,367.54c-1.23.06-2.44-.59-3.04-1.76-.83-1.6-.2-3.57,1.39-4.4l19.26-9.99c1.6-.83,3.57-.21,4.4,1.39.83,1.6.2,3.57-1.39,4.4l-19.26,9.99c-.43.22-.9.34-1.35.36Z"/>
      </g>
      <g>
        <path class="cls-2" d="M453.44,70.47c22.67,1.84,26.5,57.5,24,78.34-10.66,29.66-6.5,62.66-4,77.16-8,24.5-31.66,28.5-59.16,34-7.5-15.16,4.16-27.16,6.83-30.83s5.67-5.5,11.67-39.17c-6.39,2.13-13.71,2.57-19.66,2.16-6.48-.45-12.37-3.94-15.93-9.38-21.79-33.3-14.58-81.61-14.58-81.61,11.67-34,48.17-32.5,70.83-30.67Z"/>
        <path class="cls-4" d="M411.61,251.31c1.1,3.58,2.02,6.48,2.71,8.66,21.31-4.26,40.31-7.64,51.5-20.35.3-.35.6-.7.89-1.06.12-.15.24-.29.36-.44.27-.34.53-.69.78-1.04.14-.19.27-.37.4-.56.23-.33.46-.68.69-1.02.15-.22.29-.45.43-.68.21-.33.41-.67.61-1.01.15-.26.3-.53.44-.8.18-.33.36-.66.53-1,.15-.3.3-.61.44-.91.16-.33.32-.66.47-1,.14-.32.28-.66.41-.99.14-.35.29-.69.42-1.04.1-.27.2-.56.3-.84.15-.41.3-.82.44-1.24-2.5-14.5-6.66-47.5,4-77.16.32-2.62.53-5.79.62-9.34-69.89-4.92-78.9-42.46-79.17-60.35-6.97,4.76-12.76,11.77-16.28,22.02,0,0-.72,4.83-1.02,12.47l-.12,10.66s9.9-2.21,17.02-12.46c5.25,11.38,35,28.51,57.37,31.36,2.27,4.95,2.75,7.23,2.75,7.23l-46.12,15.12s-.87,13.38-5.12,14.62c8.25,2.25,13.25-3.88,13.62-7.25,11.88-2.38,30.5-7.12,37.62-10.5-.25,13.38,3.33,58.42,1.17,64.75-3.33,6.33-27.67,21-48.17,24.17Z"/>
        <path class="cls-8" d="M414.27,261.97c-.75,0-1.45-.42-1.79-1.11-7.32-14.79,2.03-26.59,6.02-31.62.4-.5.73-.92.99-1.27.21-.29.42-.57.64-.85,2.24-2.94,5.01-6.57,10.11-34.33-6.89,1.7-13.6,1.59-17.26,1.34-7.04-.49-13.57-4.33-17.47-10.28-21.95-33.55-15.18-81-14.88-83,.02-.12.05-.24.09-.35,12.66-36.88,53.34-33.59,72.88-32.01,4.72.38,8.94,2.81,12.54,7.22,13.44,16.45,15.3,56.53,13.29,73.35-.02.15-.05.3-.1.44-9.52,26.48-7.38,56.02-3.91,76.14.06.32.03.65-.07.96-8.12,24.87-31.33,29.49-58.19,34.85l-2.48.49c-.13.03-.26.04-.39.04ZM432.77,187.97c.47,0,.94.17,1.31.49.53.46.79,1.17.66,1.86-5.63,31.61-8.72,35.65-11.44,39.22-.2.26-.39.51-.58.78-.28.38-.65.85-1.08,1.4-3.68,4.64-11.18,14.11-6.2,25.98l.93-.19c26.51-5.28,47.48-9.46,55.02-31.7-3.49-20.53-5.55-50.44,4.1-77.46,2.02-17.37-.38-55.37-12.44-70.12-2.89-3.53-6.17-5.47-9.76-5.76-18.51-1.5-56.99-4.6-68.71,29.15-.44,3.2-6.16,48.78,14.3,80.05,3.21,4.91,8.59,8.08,14.39,8.48,3.93.27,11.61.36,18.89-2.06.21-.07.42-.1.63-.1Z"/>
        <path class="cls-8" d="M432.77,192.47c-.92,0-1.8-.51-2.24-1.39-.62-1.24-.11-2.74,1.12-3.35,3.95-1.97,10.7-5.48,12-6.54,1.07-.87,2.65-.71,3.52.36.87,1.07.71,2.65-.36,3.52-2.11,1.71-11.13,6.24-12.92,7.13-.36.18-.74.26-1.11.26Z"/>
        <path class="cls-22" d="M409.02,179.36h0c-3.42,0-6.36-2.4-7.06-5.74l-3.48-16.76h17.12l.63,14.99c.17,4.1-3.1,7.51-7.2,7.51Z"/>
        <path class="cls-8" d="M409.02,181.86c-4.58,0-8.58-3.25-9.51-7.74l-3.48-16.76c-.15-.74.03-1.5.51-2.09s1.19-.92,1.94-.92h17.12c1.38,0,2.5,1.12,2.5,2.5s-1.12,2.5-2.5,2.5h-14.04l2.86,13.75c.45,2.17,2.39,3.75,4.61,3.75,1.38,0,2.5,1.12,2.5,2.5s-1.12,2.5-2.5,2.5Z"/>
        <path class="cls-6" d="M517.28,203.31c.33,45,7.66,103,7.66,103,0,0-16,10-34.33,5-12.6-3.44-20.89-45.6-24.84-71.64,3.26-3.69,5.87-8.17,7.67-13.7-2.5-14.5-6.66-47.5,4-77.16.32-2.62.53-5.79.62-9.34-69.89-4.92-78.9-42.46-79.17-60.35-6.97,4.76-12.76,11.77-16.28,22.02,0,0-.72,4.83-1.02,12.47,0,0-30.65-74.3,67.02-73.64,97.67.67,68.33,118.34,68.67,163.34Z"/>
        <path class="cls-3" d="M511.27,102.64c4.77,21.35,7.75,34.65,9.6,42.94,1.99-49.42-5.13-105.15-72.27-105.61-2.77-.02-5.43.03-8,.13v3.54s58,2.33,70.67,59Z"/>
        <path class="cls-19" d="M499.75,136.14c-3.48,12.65-19.15,11.42-22.14,11.07-.05.55-.11,1.1-.17,1.6-10.66,29.66-6.5,62.66-4,77.16-1.8,5.53-4.41,10.01-7.67,13.7,3.95,26.04,12.24,68.2,24.84,71.64,6.06,1.65,11.85,1.66,16.91.94-20.69-54.56-9.9-159.66-7.76-176.11Z"/>
        <g>
          <path class="cls-8" d="M381.58,116.11c-1,0-1.92-.6-2.31-1.55-.5-1.22-12.2-30.25,2.92-52.67,10.93-16.21,32.83-24.42,65.12-24.42.43,0,.87,0,1.3,0,31.63.22,53.47,12.72,64.92,37.17.59,1.25.05,2.74-1.2,3.32-1.25.59-2.74.05-3.32-1.2-10.71-22.87-30.47-34.08-60.42-34.29-31.24-.2-52.17,7.26-62.25,22.21-7.71,11.43-7.52,25.17-5.88,35.01,3.45-9.67,9.17-17.29,17.01-22.64.76-.52,1.74-.58,2.56-.15.82.42,1.33,1.26,1.35,2.18.11,7.62,1.88,18.92,9.67,29.51.82,1.11.58,2.68-.54,3.5-1.11.82-2.68.58-3.49-.54-7.03-9.57-9.6-19.64-10.37-27.55-5.19,4.56-9.09,10.5-11.61,17.72-.14,1.02-.71,5.48-.96,11.98-.05,1.17-.9,2.16-2.06,2.36-.15.03-.29.04-.44.04Z"/>
          <path class="cls-8" d="M501.27,315.22c-3.59,0-7.4-.43-11.33-1.5-10.71-2.93-19.68-27.71-26.65-73.68-.11-.73.11-1.48.6-2.03,3.07-3.47,5.35-7.48,6.97-12.24-3.49-20.57-5.52-50.48,4.12-77.54.22-1.89.39-4.05.49-6.45-26.93-2.23-47.41-9.58-60.92-21.88-1.02-.93-1.1-2.51-.17-3.53.93-1.02,2.51-1.09,3.53-.17,13.06,11.89,33.35,18.88,60.31,20.78,1.33.09,2.36,1.22,2.32,2.56-.09,3.65-.31,6.87-.64,9.58-.02.19-.07.37-.13.54-9.48,26.38-7.35,55.83-3.89,75.89.07.4.04.81-.09,1.2-1.71,5.27-4.14,9.76-7.4,13.68,6.26,40.7,14.78,66.27,22.85,68.47,14.06,3.84,26.88-1.83,30.99-3.96-1.2-9.88-7.18-61.25-7.47-101.61-.06-7.68.72-17.19,1.61-28.2,2.03-24.94,4.55-55.97-1.68-81.77-.32-1.34.5-2.69,1.84-3.02,1.34-.32,2.69.5,3.02,1.84,6.42,26.58,3.86,58.06,1.8,83.35-.89,10.89-1.65,20.3-1.59,27.76.33,44.33,7.57,102.13,7.64,102.71.12.97-.33,1.92-1.16,2.43-.55.34-11.07,6.79-24.99,6.79Z"/>
        </g>
        <ellipse class="cls-1" cx="480.14" cy="129.09" rx="22.13" ry="16.8" transform="translate(251.43 570.56) rotate(-77.66)"/>
        <path class="cls-8" d="M478.22,153.52c-1.12,0-2.23-.12-3.34-.36-5.16-1.13-9.41-4.77-11.95-10.26-2.43-5.25-3.02-11.62-1.64-17.92,2.9-13.27,13.71-22.21,24.12-19.94,5.16,1.13,9.41,4.77,11.95,10.26,2.43,5.25,3.01,11.62,1.64,17.92h0c-1.38,6.3-4.56,11.85-8.97,15.6-3.62,3.08-7.71,4.7-11.81,4.7ZM482.08,109.67c-6.98,0-13.82,6.82-15.9,16.37-1.15,5.25-.69,10.48,1.29,14.75,1.87,4.04,4.88,6.69,8.48,7.48,3.6.79,7.45-.37,10.83-3.25,3.58-3.05,6.18-7.62,7.33-12.87h0c1.15-5.25.69-10.48-1.29-14.75-1.87-4.04-4.88-6.69-8.48-7.48-.75-.16-1.5-.24-2.26-.24Z"/>
        <path class="cls-8" d="M429.78,140.74c-1.06,0-2.03-.68-2.37-1.71-.37-1.11-3.3-5.51-7.52-5.73-1.33-.07-1.96.36-2.32.69-1.11,1.04-1.38,3.12-1.39,3.83-.02,1.37-1.13,2.48-2.5,2.48h-.01c-1.37,0-2.49-1.12-2.49-2.49,0-.48.08-4.73,2.93-7.43,1.55-1.48,3.65-2.19,6.03-2.06,5.11.27,9.03,3.97,10.94,6.99,1.99-.73,4.66-2.13,6.24-3.06,1.19-.7,2.72-.31,3.42.88.7,1.19.31,2.72-.88,3.42-.64.38-6.35,3.7-9.75,4.18-.12.02-.23.02-.35.02Z"/>
        <path class="cls-19" d="M401.78,68.81c-5.67,9.33,0,28.08,0,28.08,0,0-14.84,24.58-34.67,28.08-1.33-45.33,34.67-56.16,34.67-56.16Z"/>
        <path class="cls-8" d="M380.1,140.66c-.28,0-.56-.05-.83-.14-2.74-.96-5.71-3.13-6.04-3.37-1.11-.82-1.34-2.39-.52-3.5.82-1.11,2.39-1.34,3.5-.52.38.28,1.17.82,2.08,1.37,1.42-3.63,4.89-6.19,8.94-6.19,5.31,0,9.62,4.42,9.62,9.86,0,1.38-1.12,2.5-2.5,2.5s-2.5-1.12-2.5-2.5c0-2.68-2.08-4.86-4.62-4.86s-4.62,2.18-4.62,4.86c0,.81-.39,1.57-1.05,2.04-.43.3-.94.46-1.45.46Z"/>
        <path class="cls-5" d="M290.81,413.71l11.79-3.58s-3.67-6.03-7.46-4.49c-3.79,1.54-4.33,8.07-4.33,8.07Z"/>
        <path class="cls-9" d="M492.73,115.92s-14.13-79.15-74.32-79.15c-14.84.5-19.63,13.31-19.63,13.31,0,0,11.5-6.06,17.3-6.75,5.16-1.1,51.74-1.45,70.58,73.11,1.27,0,6.06-.52,6.06-.52Z"/>
        <path class="cls-8" d="M441.63,111.12c-.46,0-.92-.13-1.34-.39-33.1-20.99-23.53-54.16-23.43-54.5.4-1.32,1.79-2.07,3.12-1.67,1.32.4,2.07,1.79,1.67,3.11h0c-.36,1.21-8.5,29.92,21.32,48.83,1.17.74,1.51,2.28.77,3.45-.48.75-1.29,1.16-2.11,1.16Z"/>
        <path class="cls-8" d="M511.27,301.47c-1.12,0-2.15-.76-2.43-1.91-6.47-26.44-7.49-66.77-7.21-95.95.01-1.37,1.13-2.48,2.5-2.48h.03c1.38.01,2.49,1.14,2.48,2.52-.28,28.89.71,68.78,7.07,94.71.33,1.34-.49,2.69-1.83,3.02-.2.05-.4.07-.6.07Z"/>
        <path class="cls-8" d="M504.55,185.64s-.05,0-.08,0c-1.38-.04-2.46-1.2-2.42-2.58.54-17.79,1.38-30.14,1.39-30.26.09-1.38,1.29-2.41,2.67-2.32,1.38.09,2.42,1.29,2.32,2.67,0,.12-.84,12.38-1.38,30.07-.04,1.35-1.15,2.42-2.5,2.42Z"/>
        <path class="cls-24" d="M369.13,254.48c-8.44,2.7-28.61,12.13-27.69,40.5,3.05,4.68,11.19,10.01,17.59,13.71-1.14-4.03-1.75-8.27-1.75-12.64,0-15.17,7.31-28.66,18.68-37.35h0c-2.4-1.09-4.7-2.47-6.82-4.22Z"/>
        <path class="cls-8" d="M359.02,311.18c-.43,0-.86-.11-1.25-.34-9.55-5.53-15.75-10.41-18.43-14.51-.25-.38-.39-.83-.41-1.29-.98-29.97,20.25-40.03,29.43-42.96.81-.25,1.69-.09,2.35.45,1.86,1.53,3.97,2.83,6.27,3.87.8.36,1.35,1.12,1.45,1.99.1.87-.27,1.74-.97,2.27-11.25,8.59-17.7,21.48-17.7,35.36,0,4.05.56,8.08,1.66,11.96.28.98-.07,2.03-.87,2.65-.45.35-.99.53-1.53.53ZM343.92,294.16c1.92,2.57,5.87,5.81,11.43,9.37-.38-2.47-.57-4.97-.57-7.49,0-14.18,6.04-27.42,16.69-36.88-.98-.58-1.91-1.21-2.81-1.88-8.53,3.03-25.2,12.15-24.73,36.88Z"/>
        <path class="cls-2" d="M287.27,435.97c42.24-14,77.68-25.95,105.67-28.66v-17.68s-68.33,12-106.33,25.67c-28.34,10.19-30.54,26.31-29.82,33.85,7.38-4.33,17.27-8.8,30.49-13.19Z"/>
        <path class="cls-4" d="M293.36,426.14c-4.16,2.78-26.71,11.21-35.87,14.58-.87,3.3-.91,6.24-.7,8.44,7.38-4.33,17.27-8.8,30.49-13.19,14.61-4.84,28.38-9.43,41.34-13.48-.25-3.09-.56-5.92-.75-7.1-.31-1.84-4.62-6.62-7.9-10.04-8.76,2.26-17.34,4.67-25.1,7.16,1.01,4.92,1.66,11.52-1.5,13.63Z"/>
        <path class="cls-8" d="M256.78,451.66c-.39,0-.78-.09-1.14-.27-.76-.39-1.27-1.14-1.35-1.99-.69-7.31.99-25.48,31.47-36.44,37.77-13.58,106.06-25.66,106.75-25.78.73-.13,1.48.07,2.04.55.57.48.89,1.18.89,1.91v17.68c0,1.29-.98,2.36-2.26,2.49-26.92,2.6-61.5,14.07-101.54,27.35l-3.58,1.19-.79-2.37.79,2.37c-12.04,3.99-22.14,8.36-30.01,12.97-.39.23-.83.34-1.26.34ZM390.44,392.63c-13.47,2.47-70.07,13.19-102.99,25.03-22.11,7.95-27.49,19.31-28.19,27.25,7.53-4.02,16.67-7.81,27.23-11.31l3.58-1.19c39.23-13.01,73.26-24.3,100.38-27.35v-12.43Z"/>
        <path class="cls-2" d="M426.27,409.97c-30.67-10.33-77.67,5.67-139,26-40.89,13.55-49.92,28-51.4,36.12,24.25,8.89,50.44,13.74,77.77,13.74,46.66,0,90.02-14.15,126.02-38.38,2.12-16.64.24-32.88-13.39-37.48Z"/>
        <path class="cls-8" d="M313.64,488.33c-27.03,0-53.48-4.67-78.63-13.89-1.14-.42-1.82-1.6-1.6-2.8,1.81-9.93,12.49-24.59,53.08-38.04l3.61-1.2c59.29-19.66,106.12-35.19,136.97-24.8h0c8.83,2.97,18.61,12.36,15.07,40.16-.09.71-.49,1.36-1.08,1.76-37.72,25.39-81.78,38.81-127.42,38.81ZM238.85,470.51c23.96,8.51,49.11,12.82,74.79,12.82,44.26,0,87-12.9,123.68-37.32,2.21-18.95-1.77-30.27-11.84-33.67h0c-29.27-9.86-75.4,5.44-133.81,24.81l-3.61,1.2c-36.7,12.17-46.74,24.71-49.21,32.16Z"/>
        <path class="cls-4" d="M238.87,464.78c-1.76,2.77-2.63,5.25-3.01,7.32,24.25,8.89,50.44,13.74,77.77,13.74,10.45,0,20.73-.71,30.8-2.09-.13-7.78-.33-13.35-.33-13.35l-8.75-37.17-10.89-9.43c-9.22,2.92-18.86,6.1-28.89,9.43h0s.67,26.17-5.15,30.92c-5.68,4.64-27.03,9.27-51.55.64Z"/>
        <path class="cls-2" d="M249.11,217.64c-1.3,30.71,7.23,73.18,18.59,95.98,19.76,9.2,48.5,21.87,67.76,27.37,0,0,.01,0,.02,0,21.88-.09,30.88-9.16,37.13-15.1-6.36-13.9-13.85-22.47-19.38-27.14-3.67-3.1-8.8-3.81-13.19-1.87-31.48,13.87-46.97-7.11-54.17-30.99-16.75-55.5-5.81-56.38-7-79.33-1.42-27.25-12.42-46.8-15.92-53.34s-6.75-11.96-11-9.91,3.42,22.08,7.92,36.71c-7.08-3.21-24.95-.92-29.45,14.96-7.5,28,13.09,39.9,18.7,42.67Z"/>
        <path class="cls-4" d="M353.22,298.75c-3.67-3.1-8.8-3.81-13.19-1.87-.47.21-.92.38-1.39.57v.02s14.13,12.17,12.46,23.5c-.5,4.67-37.17,9.83-63.67-10.67s-28.17-97.79-28.17-97.79c0,0-31.56-11.22-18.93-50.4-4.39,2.54-8.18,6.66-9.94,12.85-7.5,28,13.09,39.9,18.7,42.67-1.3,30.71,7.23,73.18,18.59,95.98,19.76,9.2,48.5,21.87,67.76,27.37,0,0,.01,0,.02,0,21.88-.09,30.88-9.16,37.13-15.1-6.36-13.9-13.85-22.47-19.38-27.14Z"/>
        <path class="cls-8" d="M335.47,343.49c-.12,0-.24,0-.35-.03-.11-.02-.24-.04-.35-.07-19.31-5.51-47.71-18-68.13-27.5-.51-.24-.93-.65-1.18-1.15-11.66-23.42-19.86-65.07-18.91-95.61-7.82-4.27-25.89-17.42-18.56-44.8,2.52-8.89,8.55-13.31,13.17-15.45,5.25-2.44,10.7-2.95,14.95-2.4-.46-1.42-.93-2.88-1.42-4.38-6.08-18.68-9.02-28.54-3.84-31.04,6.69-3.22,11.08,4.99,14.29,10.98.23.42.49.9.78,1.43,4.39,8.06,14.68,26.93,15.43,53.01.28,9.88-.62,16-1.42,21.4-1.65,11.13-2.96,19.93,8.32,57.29,3.39,11.23,9.96,25.78,22,31.29,8.05,3.68,17.83,3.01,29.05-1.99,5.03-2.24,11.03-1.4,15.29,2.16,4.46,3.72,13.03,12.34,20.29,28.22.44.97.22,2.12-.55,2.85l-.45.43c-6.39,6.08-16.04,15.27-38.39,15.36h-.01ZM269.55,311.73c20.08,9.33,47.52,21.36,66.26,26.76,19.2-.16,27.71-7.44,33.77-13.17-6.68-13.95-14.21-21.53-18.2-24.85-2.81-2.34-6.75-2.9-10.05-1.43-12.59,5.62-23.75,6.28-33.17,1.97-11.03-5.05-19.34-16.62-24.7-34.39-11.6-38.43-10.22-47.71-8.48-59.46.77-5.19,1.64-11.08,1.37-20.52-.71-24.89-10.6-43.02-14.83-50.76-.3-.55-.56-1.04-.8-1.47-3.15-5.89-5.52-9.47-7.45-8.93-1.03,2.98,3.46,16.77,6.17,25.08.95,2.93,1.94,5.96,2.8,8.74.29.94,0,1.96-.74,2.61-.74.65-1.79.81-2.68.4-3.23-1.46-9.77-1.57-15.55,1.12-3.67,1.7-8.47,5.21-10.46,12.25-6.65,24.84,9.95,36.07,17.4,39.74.89.44,1.43,1.36,1.39,2.35-1.23,29.12,6.79,71,17.94,93.98Z"/>
        <path class="cls-24" d="M474.26,418.78c-.13-.55-.26-1.09-.41-1.65-36-46.75-2.01-73.67-2.01-73.67l-17.24-47.43c0-4.11-.54-8.1-1.55-11.91-5.21,2.62-10.75,4.78-16.45,6.26-19.5-15.5-22.33-30.42-22.33-30.42-7.8,1.57-24.75,4.87-38.32-1.28-11.37,8.68-18.68,22.18-18.68,37.35,0,19.6,12.2,36.42,29.6,43.65,0,0,0,0,0,0,12.52,61.55-5.41,70.95-5.41,70.95,0,0-1.11,57,1.14,61.75.32.68,1.4,1.26,2.98,1.74,33.85-11.36,64.12-30.52,88.68-55.34Z"/>
        <path class="cls-15" d="M471.85,343.47l-17.24-47.43c0-2.96-.29-5.86-.82-8.68-.58-.93-1.16-1.84-1.73-2.75-4.92,2.4-10.11,4.38-15.45,5.77-19.5-15.5-22.33-30.42-22.33-30.42-7.8,1.57-24.75,4.87-38.32-1.28-1.07.81-2.08,1.68-3.07,2.58.28.27,16.41,7.3,29.48,4.83,5.49,9,15.87,18.66,15.87,18.66,0,0,2.62,20.16-14.62,26.5-10.35,3.8-33.67,9.54-45.83-14.29.91,22.83,14.61,36.7,29.1,42.72,0,0,0,0,0,0,4.74,23.33,5.11,39.16,3.74,49.83,14.11-3.67,31.9-9.1,41.49-15.14-.25,10.75,2.25,29.75,6.5,34,2.1,2.1,13.33-3.27,24.18-9.24-16.28-35.59,9.07-55.68,9.07-55.68Z"/>
        <path class="cls-8" d="M385.59,476.63c-.25,0-.49-.04-.73-.11-2.47-.76-3.86-1.7-4.51-3.06-2.32-4.9-1.64-49.36-1.38-62.87.02-.91.53-1.74,1.34-2.17.11-.07,15.7-9.98,4.37-66.96-18.21-8.12-29.91-25.81-29.91-45.43,0-15.45,7.17-29.79,19.66-39.33.73-.56,1.71-.67,2.55-.29,13,5.89,29.67,2.54,36.8,1.11.65-.13,1.33,0,1.89.38.55.37.94.95,1.06,1.61.03.13,2.91,13.78,20.46,28.14,4.93-1.37,9.89-3.3,14.75-5.75.67-.34,1.46-.36,2.15-.05.69.31,1.2.91,1.39,1.64,1.05,3.94,1.59,8.01,1.63,12.11l17.09,47.02c.37,1.01.05,2.15-.8,2.81-1.3,1.04-31.55,26.04,2.44,70.18.2.26.35.56.43.88.13.48.24.94.35,1.41l.07.3c.2.84-.04,1.73-.65,2.35-25.07,25.33-56.07,44.68-89.66,55.96-.26.09-.53.13-.8.13ZM384.8,471.13c.13.08.37.2.78.36,32.08-10.91,61.71-29.34,85.85-53.41-18.8-24.73-18.26-44.12-14.46-56.07,3.24-10.19,9.24-16.73,11.95-19.29l-16.66-45.84c-.1-.27-.15-.56-.15-.85,0-2.79-.26-5.57-.79-8.3-4.65,2.14-9.38,3.84-14.08,5.07-.76.2-1.57.03-2.18-.46-15.57-12.38-20.91-24.44-22.56-29.47-8.18,1.58-23.27,3.89-36.15-1.3-10.54,8.58-16.56,21.06-16.56,34.46,0,18.03,11.01,34.26,28.06,41.34.77.32,1.33,1,1.49,1.82,0,.04.01.07.02.11,10.97,54.06-.99,69.09-5.41,72.65-.49,26.09-.34,54.97.87,59.17Z"/>
        <path class="cls-24" d="M424.77,307.31s-9.5-12.17,11.17-34.17c20.67-22,50.67-24.67,61.5-12.17,10.83,12.5-3.5,89-39.83,85.5-3.5-7.17-32.83-39.17-32.83-39.17Z"/>
        <path class="cls-15" d="M497.44,260.97c-1.91-2.2-4.42-3.92-7.37-5.16,1.42,25.4-13.57,75.97-43.27,73.11-2.26-4.62-15.26-19.57-24.21-29.61.03,5.24,2.17,8,2.17,8,0,0,29.33,32,32.83,39.17,36.33,3.5,50.67-73,39.83-85.5Z"/>
        <path class="cls-8" d="M460.06,349.09c-.89,0-1.79-.04-2.69-.13-.87-.08-1.63-.61-2.01-1.39-2.74-5.61-24.34-29.75-32.43-38.57-.04-.05-.09-.1-.13-.15-.44-.57-10.57-14.12,11.32-37.42,12.29-13.09,28.88-20.75,44.39-20.4,8.94.18,16.34,3.13,20.83,8.31,7.93,9.15,4.05,42.58-7.53,65.04-8.38,16.23-19.31,24.72-31.74,24.72ZM459.12,344.07c13.63.54,22.85-11.56,28.23-21.99,11.87-23.01,13.51-53.34,8.2-59.47-3.55-4.1-9.64-6.44-17.15-6.59-13.92-.32-29.47,6.94-40.64,18.83-18.29,19.47-11.64,30.02-11.06,30.86,3.25,3.54,26.94,29.51,32.41,38.36Z"/>
        <g>
          <path class="cls-2" d="M335.11,340.89c15.44,4.45,46.91,4.31,91-36,2.75-1.75,17-4.5,30.25,11.25s5.45,28.36,2.73,30.43c-2.73,2.07-53.98,38.57-87.73,38.07s-76.25-3.25-139.5-52.75c-1.25,7.25-7,20.25-21.25,27.5s-28.5-1.5-30.75-8.75c-3.5,7.5-6.68,14.43-9.5,19.25-4.58,7.83-8.34,10.58-11.34,8.58-3-2-1.41-26.58,21.34-58.08s58.5-20.74,66.25-16.87c7.75,3.87,59,28.87,88.5,37.37Z"/>
          <path class="cls-8" d="M372.04,387.14c-.24,0-.48,0-.72,0-36.98-.55-78.08-4.98-137.94-50.91-2.63,8.58-9.4,19.16-21.64,25.39-9.75,4.96-18.36,2.67-22.63.87-3.7-1.56-6.86-3.86-9.01-6.45-2.71,5.79-5.26,11.15-7.58,15.12-3.67,6.27-6.89,9.54-10.12,10.29-1.67.38-3.32.08-4.76-.89-1.02-.68-1.68-1.89-2.01-3.7-1.48-8.19,3.38-31.16,22.71-57.93,22.66-31.37,58.59-23.04,69.39-17.64,15.58,7.78,61.78,29.63,88.08,37.2,14.15,4.08,44.49,4.9,88.62-35.44.11-.1.22-.19.34-.26,4.11-2.61,19.68-4.68,33.5,11.75,7.59,9.03,8.51,17,7.94,22.1-.68,6.14-3.73,10.5-5.61,11.93-.51.39-53.04,38.58-88.56,38.59ZM231.85,329.39c.55,0,1.09.18,1.54.53,60.3,47.19,101.24,51.67,138,52.22.21,0,.42,0,.64,0,29.63,0,75.66-30.06,85.54-37.57.59-.45,3.1-3.37,3.67-8.5.66-5.92-1.69-12.26-6.8-18.33-12.13-14.41-24.78-11.87-26.85-10.83-45.82,41.8-78.04,40.74-93.18,36.37-32.12-9.26-88.36-37.25-88.92-37.54-9.82-4.9-42.48-12.47-63.11,16.1-21.28,29.47-22.94,51.38-21.72,54.68.22.09.4.08.6.03.79-.18,3.06-1.32,6.93-7.94,2.54-4.33,5.46-10.6,8.55-17.23l.85-1.81c.44-.94,1.41-1.5,2.43-1.44,1.03.07,1.91.77,2.22,1.75.76,2.44,3.78,5.86,8.81,7.99,3.47,1.46,10.47,3.32,18.42-.72,12.53-6.38,18.56-17.83,19.92-25.7.15-.87.74-1.59,1.56-1.91.29-.11.6-.17.9-.17Z"/>
        </g>
        <path class="cls-20" d="M313.64,485.83c64.88,0,123.37-27.35,164.58-71.15-4.17-9.48-10.14-17.99-18.67-24.05-26.41,18.79-60.37,6.33-68.59-4.37-10.34.27-95.4,20.06-95.4,20.06,0,0,9.54-.68,10.49,29.54,1.94,25.08-2.65,41.79-5.59,49.58,4.36.25,8.75.39,13.17.39Z"/>
        <path class="cls-5" d="M478.22,414.68c-4.17-9.48-10.14-17.99-18.67-24.05-7.18,5.11-16.74,7.77-24.36,8.93.98,6,4.83,31.67-32.25,44.75-36.13,12.75-78.87,19.42-97.69,21.73-1.27,8.83-3.25,15.34-4.78,19.4,4.36.25,8.75.39,13.17.39,64.88,0,123.37-27.35,164.58-71.15Z"/>
        <path class="cls-8" d="M313.64,488.33c-4.26,0-8.73-.13-13.31-.4-.79-.05-1.52-.47-1.95-1.13-.43-.67-.52-1.5-.24-2.25,2.85-7.55,7.35-23.89,5.44-48.5,0-.07,0-.14,0-.21.14-20.43-3.45-25.93-5-27.35-.64-.59-1.11-.66-1.19-.62,0,0-.01,0-.02,0-1.31.3-2.62-.5-2.97-1.79-.35-1.3.39-2.64,1.68-3.03.07-.02.18-.05.34-.08,5.15-1.16,84.15-18.94,94.49-19.21.8-.03,1.56.34,2.05.98,1.74,2.26,4.87,4.64,8.81,6.71,5.08,2.67,11.04,4.6,17.24,5.61,14.3,2.31,28.19-.7,39.11-8.47.87-.62,2.03-.62,2.9,0,8.18,5.82,14.75,14.26,19.5,25.08.4.92.22,1.99-.47,2.72-21.15,22.47-46.12,40.16-74.23,52.57-29.1,12.85-60.11,19.36-92.18,19.36ZM303.93,483.11c3.33.15,6.58.22,9.71.22,61.7,0,119.03-24.54,161.61-69.15-4.04-8.65-9.32-15.52-15.75-20.48-11.75,7.77-26.34,10.71-41.3,8.3-6.72-1.09-13.21-3.2-18.76-6.11-4.07-2.13-7.34-4.55-9.57-7.04-10.48,1.02-57.58,11.22-86.43,17.67,3.5,4.94,5.23,14.75,5.13,29.26,1.73,22.49-1.73,38.44-4.63,47.34Z"/>
        <path class="cls-8" d="M367.1,126.97c-.46,0-.9-.16-1.26-.45-.45-.37-.72-.91-.74-1.49-1.36-46.33,35.72-58.02,36.09-58.13.79-.24,1.65.04,2.16.69.51.65.56,1.55.13,2.26-5.15,8.47.15,26.28.21,26.46.16.54.09,1.13-.2,1.61-.62,1.04-15.54,25.4-36.03,29.02-.12.02-.23.03-.35.03ZM398.16,72.41c-8.98,4.24-29.08,17.39-29.09,50.07,15.76-4.22,28.06-22.09,30.54-25.91-.92-3.35-3.79-15.21-1.45-24.16Z"/>
        <path class="cls-8" d="M486.67,118.94c-1.14,0-2.14-.78-2.42-1.89-19.35-76.57-67.17-71.38-67.63-71.28-.08.02-.15.03-.23.04-4.37.52-13.34,4.85-16.43,6.48-.82.43-1.81.38-2.57-.15-.76-.52-1.18-1.42-1.08-2.34.06-.56,1.77-13.74,21.89-15.52.06,0,.12,0,.17,0,26.27-.46,47.86,13.51,62.55,40.46,10.95,20.08,14.16,39.97,14.29,40.81.11.68-.07,1.36-.49,1.91-.42.54-1.04.89-1.71.97-.82.09-5,.54-6.33.54ZM419.38,40.58c5.88,0,16.57,1.59,28.19,8.81,19.06,11.84,32.85,33.51,41.01,64.43.38-.03.79-.07,1.2-.11-1.24-6.01-4.99-21.5-13.31-36.7-13.92-25.46-33.44-38.15-57.91-37.74-7.11.65-11.3,2.88-13.78,5.18,3.62-1.58,7.88-3.2,10.91-3.59.8-.16,2.07-.28,3.7-.28Z"/>
        <path class="cls-16" d="M418.97,161.25s45.58-12.12,61.17-25.12c1.96,3,2.21,4.25,4.09,5.62-9,6-36.45,20.42-66.22,25.15.85-2.15.97-5.66.97-5.66Z"/>
        <path class="cls-23" d="M488.61,239.89c-4.75-15-15.98-19.07-15.99-19.07.28,1.9.56,3.64.82,5.16-8,24.5-31.67,28.5-59.17,34,0,0,2.83,14.92,22.33,30.42,30.75-8,56.75-35.5,52-50.5Z"/>
        <path class="cls-8" d="M436.6,292.89c-.56,0-1.11-.19-1.56-.54-20-15.9-23.11-31.26-23.23-31.91-.26-1.35.62-2.65,1.97-2.92l2.49-.5c26.3-5.24,47.13-9.39,54.6-31.25-.23-1.38-.48-2.93-.73-4.6-.13-.87.21-1.74.89-2.3.68-.56,1.6-.72,2.43-.42.51.18,12.45,4.61,17.53,20.67,1.53,4.83.45,10.8-3.12,17.26-8.83,15.98-29.65,30.95-50.64,36.41-.21.05-.42.08-.63.08ZM417.45,261.89c1.63,4.54,6.52,14.95,19.74,25.76,21.5-5.98,39.5-21.34,46.31-33.66,2.89-5.23,3.83-9.84,2.73-13.34h0c-2.54-8.03-7.01-12.63-10.32-15.08.07.4.03.8-.09,1.18-8.19,25.09-31.43,29.77-58.37,35.14Z"/>
        <path class="cls-8" d="M418.01,169.41c-.75,0-1.47-.34-1.95-.93-.56-.7-.7-1.65-.38-2.48.56-1.43.77-4.03.79-4.83.04-1.1.79-2.05,1.86-2.33.45-.12,45.22-12.12,60.21-24.62.55-.46,1.26-.66,1.97-.55.7.1,1.33.51,1.72,1.1.64.98,1.11,1.79,1.5,2.44.78,1.34,1.1,1.89,1.98,2.54.66.48,1.04,1.26,1.02,2.07-.02.82-.43,1.57-1.11,2.02-8.14,5.43-36.09,20.6-67.22,25.54-.13.02-.26.03-.39.03ZM421.33,163.2c-.02.2-.04.4-.07.61,26.13-4.86,49.38-16.65,59.08-22.55-.31-.46-.59-.93-.89-1.45-15.63,11.2-49.93,21.12-58.12,23.38Z"/>
        <path class="cls-9" d="M499.27,132.44c-1.74,7.97-7.8,13.42-13.52,12.17s-8.95-8.73-7.2-16.7c1.74-7.97,7.8-13.42,13.52-12.17,5.72,1.25,8.95,8.73,7.2,16.7Z"/>
        <path class="cls-8" d="M487.37,147.28c-.72,0-1.44-.08-2.15-.23-3.58-.78-6.47-3.37-8.16-7.28-1.57-3.63-1.9-8.03-.95-12.39,2.03-9.3,9.43-15.62,16.49-14.07,7.06,1.54,11.15,10.37,9.11,19.68h0c-1.83,8.36-7.99,14.31-14.34,14.31ZM490.42,118.06c-3.98,0-8.13,4.44-9.43,10.38-.73,3.35-.5,6.67.66,9.34,1.03,2.39,2.68,3.95,4.64,4.38,4.29.94,9.12-3.76,10.54-10.26h0c1.42-6.5-1-12.78-5.3-13.72-.37-.08-.74-.12-1.11-.12Z"/>
        <path class="cls-16" d="M502.62,133.03c-1.43,6.54-6.4,11.01-11.09,9.98-4.7-1.03-7.34-7.16-5.91-13.7s6.4-11.01,11.09-9.98c4.7,1.03,7.34,7.16,5.91,13.7Z"/>
        <path class="cls-1" d="M420.02,163.69c0,2.44-2.84,4.42-6.33,4.42s-6.33-1.98-6.33-4.42,2.84-4.42,6.33-4.42,6.33,1.98,6.33,4.42Z"/>
        <path class="cls-8" d="M413.69,170.61c-4.95,0-8.83-3.04-8.83-6.92s3.88-6.92,8.83-6.92,8.83,3.04,8.83,6.92-3.88,6.92-8.83,6.92ZM413.69,161.77c-2.3,0-3.83,1.15-3.83,1.92s1.53,1.92,3.83,1.92,3.83-1.15,3.83-1.92-1.53-1.92-3.83-1.92Z"/>
        <path class="cls-8" d="M492.86,145.66c-.63,0-1.25-.07-1.87-.2-3.03-.66-5.59-2.94-7.01-6.24-1.32-3.06-1.61-6.77-.81-10.44,1.75-8.01,7.92-13.23,14.07-11.89,3.03.66,5.59,2.94,7.01,6.24,1.32,3.06,1.61,6.77.81,10.44h0c-.8,3.67-2.61,6.92-5.09,9.15-2.13,1.92-4.64,2.94-7.11,2.94ZM495.34,121.69c-3.06,0-6.26,3.5-7.28,8.16-.57,2.62-.39,5.31.51,7.39.46,1.06,1.52,2.9,3.49,3.33,1.97.44,3.71-.8,4.56-1.57,1.68-1.52,2.98-3.89,3.55-6.5h0c.57-2.62.39-5.31-.51-7.39-.46-1.06-1.52-2.9-3.49-3.33-.27-.06-.55-.09-.83-.09Z"/>
        <path class="cls-3" d="M463.06,75.26c8.19,15.56,3.59,29.57-2.48,32.76-6.07,3.19-22.62-6.83-30.8-22.39-8.19-15.56-4.91-30.77,1.16-33.96s23.93,8.03,32.12,23.59Z"/>
        <path class="cls-12" d="M480.3,110.07c-5.54,2.82-12.58,9.47-13.06,21.58-.07,1.66,1.22,3.05,2.88,3.12.04,0,.08,0,.12,0,1.6,0,2.93-1.27,3-2.88.38-9.35,5.37-13.88,8.82-15.92l-1.76-5.91Z"/>
        <path class="cls-8" d="M313.64,488.33c-27.03,0-53.48-4.67-78.63-13.89-1.14-.42-1.82-1.6-1.6-2.8,1.81-9.93,12.49-24.59,53.08-38.04l3.61-1.2c59.29-19.66,106.12-35.19,136.97-24.8,1.31.44,2.01,1.86,1.57,3.17-.44,1.31-1.86,2.01-3.17,1.57-29.27-9.86-75.4,5.44-133.81,24.81l-3.61,1.2c-36.7,12.17-46.74,24.71-49.21,32.16,23.96,8.51,49.11,12.82,74.79,12.82,1.38,0,2.5,1.12,2.5,2.5s-1.12,2.5-2.5,2.5Z"/>
        <path class="cls-23" d="M421.11,229.14c1.87-2.57,3.9-4.26,7.02-16.62-.09,0-48.78,2.16-60.52,40.62,14,13.25,37.15,8.75,46.67,6.83-7.5-15.17,4.17-27.17,6.83-30.83Z"/>
        <path class="cls-8" d="M394.79,264.77c-9.79,0-20.74-2.09-28.9-9.82-.69-.65-.95-1.64-.67-2.55,2.29-7.52,6.12-14.24,11.37-19.99,5.18-5.67,11.78-10.42,19.62-14.14,1.25-.59,2.74-.06,3.33,1.19.59,1.25.06,2.74-1.19,3.33-7.25,3.43-13.33,7.81-18.07,12.99-4.39,4.8-7.68,10.37-9.79,16.56,11.93,10.02,30.56,7.57,40.28,5.75-4.91-13.72,3.89-24.82,7.34-29.19.39-.49.72-.91.97-1.26.21-.29.42-.57.64-.85,1.37-1.8,2.91-3.81,5.07-11.49-3.24.39-8.48,1.22-14.52,2.98-1.33.39-2.71-.38-3.1-1.7-.39-1.33.37-2.71,1.7-3.1,10.47-3.05,18.79-3.48,19.14-3.49.79-.04,1.55.3,2.05.91s.68,1.43.49,2.19c-2.91,11.55-5,14.3-6.85,16.72-.19.25-.38.5-.57.76-.28.39-.66.86-1.1,1.42-3.75,4.74-11.57,14.6-5.51,26.83.34.7.34,1.51,0,2.21-.34.7-.99,1.2-1.75,1.35-4.24.85-11.7,2.35-19.98,2.35Z"/>
        <path class="cls-8" d="M392.94,95.27c-.49,0-.98-.14-1.41-.44-1.14-.78-1.43-2.34-.65-3.48,1.84-2.68,6.42-6.63,6.93-7.07,1.05-.9,2.63-.77,3.52.28.9,1.05.77,2.63-.28,3.52-1.26,1.08-4.81,4.28-6.06,6.09-.48.71-1.27,1.09-2.06,1.09Z"/>
        <path class="cls-8" d="M426.15,109.68c-.54,0-1.08-.17-1.54-.53-16.1-12.6-15.69-34-15.67-34.91.04-1.38,1.2-2.46,2.57-2.43,1.38.04,2.47,1.19,2.43,2.57,0,.29-.3,19.84,13.75,30.83,1.09.85,1.28,2.42.43,3.51-.49.63-1.23.96-1.97.96Z"/>
        <path class="cls-8" d="M500.97,102.81c-1.17,0-2.22-.83-2.45-2.02-5.3-27.28-29.17-35.92-29.41-36-1.3-.46-1.99-1.88-1.53-3.19.46-1.3,1.88-1.99,3.18-1.53,1.09.38,26.82,9.7,32.66,39.77.26,1.36-.62,2.67-1.98,2.93-.16.03-.32.05-.48.05Z"/>
        <path class="cls-8" d="M484.23,190.39c-1.32,0-2.43-1.04-2.5-2.38-.62-12.75,1.15-38.12,1.22-39.19.1-1.38,1.32-2.42,2.67-2.32,1.38.1,2.41,1.29,2.32,2.67-.02.26-1.83,26.14-1.22,38.59.07,1.38-1,2.55-2.37,2.62-.04,0-.08,0-.12,0Z"/>
        <path class="cls-8" d="M495.89,172.04s-.08,0-.11,0c-1.38-.06-2.45-1.23-2.38-2.61.28-6.18,1.74-26.92,1.81-27.8.1-1.38,1.29-2.41,2.67-2.32,1.38.1,2.41,1.29,2.32,2.67-.02.21-1.52,21.55-1.8,27.67-.06,1.34-1.17,2.39-2.5,2.39Z"/>
        <path class="cls-2" d="M335.11,340.89c15.44,4.45,46.91,4.31,91-36,2.75-1.75,17-4.5,30.25,11.25s5.45,28.36,2.73,30.43c-2.73,2.07-53.98,38.57-87.73,38.07s-76.25-3.25-139.5-52.75c-1.25,7.25-7,20.25-21.25,27.5s-28.5-1.5-30.75-8.75c-3.5,7.5-6.68,14.43-9.5,19.25-4.58,7.83-8.34,10.58-11.34,8.58-3-2-1.41-26.58,21.34-58.08s58.5-20.74,66.25-16.87c7.75,3.87,59,28.87,88.5,37.37Z"/>
        <path class="cls-4" d="M159.01,378.47c3,2,6.76-.75,11.34-8.58,2.82-4.82,6-11.75,9.5-19.25,2.25,7.25,16.5,16,30.75,8.75s20-20.25,21.25-27.5c63.25,49.5,105.75,52.25,139.5,52.75s85-36,87.73-38.07c2.73-2.07,10.52-14.68-2.73-30.43s-27.5-13-30.25-11.25c0,0,22.4,6.42,25.61,18.42s-55.78,44.21-84.11,43.11c-28.33-1.11-74.33-13.11-136-47.77-12.33,14.33-42.83,31.5-51.25,1.75-22.75,31.5-24.34,56.08-21.34,58.08Z"/>
        <path class="cls-8" d="M372.04,387.14c-.24,0-.48,0-.72,0-36.98-.55-78.08-4.98-137.94-50.91-2.63,8.58-9.4,19.16-21.64,25.39-9.75,4.96-18.36,2.67-22.63.87-3.7-1.56-6.86-3.86-9.01-6.45-2.71,5.79-5.26,11.15-7.58,15.12-3.67,6.27-6.89,9.54-10.12,10.29-1.67.38-3.32.08-4.76-.89-1.02-.68-1.68-1.89-2.01-3.7-1.48-8.19,3.38-31.16,22.71-57.93,22.66-31.37,58.59-23.04,69.39-17.64,15.58,7.78,61.78,29.63,88.08,37.2,14.15,4.08,44.49,4.9,88.62-35.44.11-.1.22-.19.34-.26,4.11-2.61,19.68-4.68,33.5,11.75,7.59,9.03,8.51,17,7.94,22.1-.68,6.14-3.73,10.5-5.61,11.93-.51.39-53.04,38.58-88.56,38.59ZM231.85,329.39c.55,0,1.09.18,1.54.53,60.3,47.19,101.24,51.67,138,52.22.21,0,.42,0,.64,0,29.63,0,75.66-30.06,85.54-37.57.59-.45,3.1-3.37,3.67-8.5.66-5.92-1.69-12.26-6.8-18.33-12.13-14.41-24.78-11.87-26.85-10.83-45.82,41.8-78.04,40.74-93.18,36.37-32.12-9.26-88.36-37.25-88.92-37.54-9.82-4.9-42.48-12.47-63.11,16.1-21.28,29.47-22.94,51.38-21.72,54.68.22.09.4.08.6.03.79-.18,3.06-1.32,6.93-7.94,2.54-4.33,5.46-10.6,8.55-17.23l.85-1.81c.44-.94,1.41-1.5,2.43-1.44,1.03.07,1.91.77,2.22,1.75.76,2.44,3.78,5.86,8.81,7.99,3.47,1.46,10.47,3.32,18.42-.72,12.53-6.38,18.56-17.83,19.92-25.7.15-.87.74-1.59,1.56-1.91.29-.11.6-.17.9-.17Z"/>
        <path class="cls-8" d="M383.94,296.14c-.12,0-.24,0-.36-.03-1.37-.2-2.31-1.47-2.12-2.83,3.67-25.36,30-35.09,31.12-35.49,1.3-.47,2.73.21,3.2,1.51.47,1.3-.21,2.73-1.51,3.2-.27.1-24.62,9.16-27.86,31.5-.18,1.25-1.25,2.14-2.47,2.14Z"/>
        <circle class="cls-23" cx="403.87" cy="276.89" r="3.97"/>
        <circle class="cls-23" cx="396.18" cy="287.7" r="3.97"/>
        <circle class="cls-23" cx="390.3" cy="301.77" r="3.97"/>
        <path class="cls-8" d="M299.94,487.81c-.44,0-.88-.11-1.28-.36-1.18-.71-1.57-2.25-.86-3.43,11.38-18.97,5.85-71.87,1.14-75.99-1.08-.38-1.69-.16-2.06.04-1.65.91-2.73,4.01-2.99,5.37-.26,1.36-1.58,2.24-2.93,1.97-1.35-.26-2.24-1.58-1.97-2.93.13-.66,1.38-6.51,5.47-8.79,1.34-.74,3.53-1.39,6.39-.3,1.77.68,3.11,2.57,4.34,6.12,5.26,15.22,7.61,59.22-3.09,77.06-.47.78-1.3,1.21-2.15,1.21Z"/>
        <g>
          <path class="cls-21" d="M253.17,352.85s-7.04-9.42,16.89-32.8c-4.95,1.09-15.36-2.07-17.73-9.48-8.77,12.43-18.8,21.74-17.14,31.4,8.07,5.06,17.97,10.88,17.97,10.88Z"/>
          <path class="cls-22" d="M235.19,341.97c8.07,5.06,17.97,10.88,17.97,10.88,0,0-4.3-5.77,5.28-19.47l-16.66-8.83c-4.49,6.16-7.57,11.73-6.6,17.42Z"/>
          <path class="cls-8" d="M253.32,355.39c-.49,0-.99-.13-1.42-.39-.1-.06-10.03-5.89-18.03-10.92-.58-.36-.98-.95-1.12-1.62-1.75-8.55,4.2-16.1,11.09-24.84,2.14-2.71,4.34-5.51,6.45-8.5.55-.78,1.49-1.17,2.42-1.03.94.14,1.71.81,2,1.71,1.91,5.97,10.87,8.66,14.81,7.8,1.09-.24,2.21.27,2.74,1.25.53.98.35,2.2-.45,2.98-21.52,21.02-16.63,29.51-16.58,29.59.81.92.74,2.18-.04,3.12-.46.56-1.16.83-1.86.83ZM237.49,340.46c4.23,2.64,8.87,5.43,12.21,7.43.3-5.12,3.26-13.42,14.55-25.48-4.5-.88-9.34-3.32-12.25-7.15-1.42,1.89-2.85,3.7-4.25,5.48-6.03,7.65-10.85,13.77-10.27,19.73Z"/>
          <path class="cls-17" d="M270.64,303.58c6.28,3.96,8.46,10.9,4.89,15.49-3.57,4.59-11.56,5.11-17.83,1.15-6.28-3.96-8.46-10.9-4.89-15.49s11.56-5.11,17.83-1.15Z"/>
          <path class="cls-8" d="M266.69,325.41c-3.42,0-7.05-1.01-10.33-3.08-4.11-2.59-6.88-6.43-7.59-10.52-.55-3.14.18-6.21,2.06-8.62,4.41-5.67,13.7-6.43,21.14-1.73h0c4.11,2.59,6.88,6.43,7.59,10.52.55,3.14-.18,6.21-2.06,8.62-2.47,3.17-6.47,4.81-10.81,4.81ZM261.64,303.43c-2.85,0-5.4.96-6.87,2.83-1.29,1.65-1.3,3.46-1.09,4.69.47,2.66,2.46,5.34,5.34,7.15,5.12,3.23,11.77,2.97,14.53-.57,1.29-1.65,1.3-3.46,1.08-4.69-.47-2.66-2.46-5.34-5.33-7.15h0c-2.4-1.52-5.14-2.26-7.66-2.26Z"/>
          <path class="cls-18" d="M272.76,299.45c6.28,3.96,8.46,10.9,4.89,15.49-3.57,4.59-11.56,5.11-17.83,1.15-6.28-3.96-8.46-10.9-4.89-15.49s11.56-5.11,17.83-1.15Z"/>
          <path class="cls-17" d="M259.82,316.09c5.08,3.21,11.28,3.48,15.35,1.03,1.24-3.94-.92-8.77-5.63-11.74-5.69-3.59-12.93-3.12-16.17,1.04-.04.05-.06.1-.1.15.35,3.47,2.67,7.07,6.56,9.53Z"/>
          <path class="cls-8" d="M268.81,321.28c-3.42,0-7.05-1.01-10.33-3.08-4.11-2.59-6.88-6.43-7.59-10.52-.55-3.14.18-6.21,2.06-8.62,4.41-5.67,13.7-6.43,21.14-1.73h0c4.11,2.59,6.88,6.43,7.59,10.52.55,3.14-.18,6.21-2.06,8.62-2.47,3.17-6.47,4.81-10.81,4.81ZM263.77,299.3c-2.85,0-5.4.96-6.87,2.83-1.29,1.65-1.3,3.46-1.09,4.69.47,2.66,2.46,5.34,5.34,7.15,5.12,3.23,11.77,2.97,14.53-.57,1.29-1.65,1.3-3.46,1.08-4.69-.47-2.66-2.46-5.34-5.33-7.15h0c-2.4-1.52-5.14-2.26-7.66-2.26Z"/>
        </g>
      </g>
      <g>
        <path class="cls-22" d="M156.05,389.74h-14.13l-3,33.64h17.13c5.14,0,9.31-4.17,9.31-9.31v-15.02c0-5.14-4.17-9.31-9.31-9.31ZM158.71,411.85c0,2.73-2.21,4.94-4.94,4.94h-12.71l2-20.46h10.71c2.91,0,4.94,1.9,4.94,4.94v10.58Z"/>
        <path class="cls-8" d="M156.05,425.88h-17.13c-.7,0-1.37-.29-1.84-.81s-.71-1.21-.65-1.91l3-33.64c.12-1.29,1.2-2.28,2.49-2.28h14.13c6.51,0,11.81,5.3,11.81,11.81v15.03c0,6.51-5.3,11.81-11.81,11.81ZM141.65,420.88h14.4c3.75,0,6.81-3.05,6.81-6.81v-15.03c0-3.75-3.05-6.81-6.81-6.81h-11.85l-.14,1.59h9.71c3.89,0,7.44,3.07,7.44,6.44v11.58c0,4.66-2.78,7.44-7.44,7.44h-11.98l-.14,1.59ZM143.82,414.29h9.96c1.87,0,2.44-.57,2.44-2.44v-11.58c-.07-.32-1.05-1.44-2.44-1.44h-8.44l-1.51,15.46Z"/>
        <path class="cls-22" d="M89.75,383.48v21.66c0,10.56,1.95,21,5.74,30.68l3.88,9.92c1.2,3.08,3.76,5.45,6.94,6.34,1.75.49,4.02.9,6.93,1.13v-69.74h-23.48Z"/>
        <path class="cls-21" d="M118.28,383.48h-5.05v69.74c1.44.11,3.01.18,4.79.18,5.48,0,9.3-.58,11.95-1.32,3.2-.9,5.77-3.26,6.98-6.36l3.86-9.89c3.78-9.68,5.74-20.13,5.74-30.68v-21.66h-28.26Z"/>
        <path class="cls-11" d="M137.52,415.71c-1.1,0-2-.9-2-2v-25.04c0-1.1.9-2,2-2s2,.9,2,2v25.04c0,1.1-.9,2-2,2Z"/>
        <path class="cls-8" d="M118.02,455.9c-4.94,0-9.1-.47-12.39-1.4-3.89-1.1-7.1-4.03-8.59-7.84l-3.88-9.92c-3.92-10.03-5.91-20.66-5.91-31.59v-21.66c0-1.38,1.12-2.5,2.5-2.5h56.79c1.38,0,2.5,1.12,2.5,2.5v21.66c0,10.93-1.99,21.56-5.91,31.59l-3.87,9.89c-1.49,3.82-4.72,6.75-8.63,7.85-3.34.94-7.59,1.41-12.62,1.41ZM92.25,385.98v19.16c0,10.31,1.87,20.32,5.56,29.77l3.88,9.92c.92,2.36,2.9,4.17,5.29,4.85,2.84.8,6.56,1.21,11.03,1.21s8.37-.41,11.27-1.23c2.41-.68,4.4-2.49,5.33-4.86l3.87-9.89c3.69-9.45,5.57-19.47,5.57-29.77v-19.16h-51.79Z"/>
        <ellipse class="cls-22" cx="118.15" cy="383.48" rx="28.4" ry="6.56"/>
        <path class="cls-8" d="M118.15,392.54c-3.16,0-30.9-.25-30.9-9.06s27.73-9.06,30.9-9.06,30.9.25,30.9,9.06-27.73,9.06-30.9,9.06ZM92.54,383.48c2.05,1.57,10.77,4.06,25.6,4.06s23.55-2.5,25.6-4.06c-2.05-1.57-10.77-4.06-25.6-4.06s-23.55,2.5-25.6,4.06Z"/>
        <path class="cls-8" d="M104.87,407.64c-1.38,0-2.5-1.12-2.5-2.5v-15.86c0-1.38,1.12-2.5,2.5-2.5s2.5,1.12,2.5,2.5v15.86c0,1.38-1.12,2.5-2.5,2.5Z"/>
        <path class="cls-8" d="M113.23,401.76c-1.38,0-2.5-1.12-2.5-2.5v-9.22c0-1.38,1.12-2.5,2.5-2.5s2.5,1.12,2.5,2.5v9.22c0,1.38-1.12,2.5-2.5,2.5Z"/>
      </g>
      <rect class="cls-7" x="527.24" y="331.27" width="47.37" height="5"/>
      <rect class="cls-7" x="535.44" y="346.47" width="18.17" height="5"/>
      <rect class="cls-7" x="590.44" y="331.27" width="19.33" height="5"/>
      <rect class="cls-7" x="47.49" y="240.1" width="40.82" height="5"/>
      <rect class="cls-7" x="13.6" y="240.1" width="20" height="5"/>
      <path class="cls-7" d="M313.64,488.33c-37.56,0-74.8-9.31-107.7-26.92l2.36-4.41c32.17,17.23,68.6,26.33,105.34,26.33,104.55,0,196.41-74.06,218.44-176.09l4.89,1.05c-10.84,50.24-38.87,95.91-78.91,128.61-40.6,33.16-91.89,51.42-144.42,51.42Z"/>
    </g>
    <g>
      <path class="cls-8" d="M558.88,139.73c-1.66,0-3-1.34-3-3v-21.5c0-1.66,1.34-3,3-3s3,1.34,3,3v21.5c0,1.66-1.34,3-3,3Z"/>
      <path class="cls-8" d="M566.84,128.98h-15.92c-1.66,0-3-1.34-3-3s1.34-3,3-3h15.92c1.66,0,3,1.34,3,3s-1.34,3-3,3Z"/>
    </g>
    <g>
      <path class="cls-8" d="M137.52,265.06c-1.66,0-3-1.34-3-3v-21.5c0-1.66,1.34-3,3-3s3,1.34,3,3v21.5c0,1.66-1.34,3-3,3Z"/>
      <path class="cls-8" d="M145.48,254.31h-15.92c-1.66,0-3-1.34-3-3s1.34-3,3-3h15.92c1.66,0,3,1.34,3,3s-1.34,3-3,3Z"/>
    </g>
    <g>
      <path class="cls-8" d="M48.57,139.73c-1.66,0-3-1.34-3-3v-21.5c0-1.66,1.34-3,3-3s3,1.34,3,3v21.5c0,1.66-1.34,3-3,3Z"/>
      <path class="cls-8" d="M56.52,128.98h-15.92c-1.66,0-3-1.34-3-3s1.34-3,3-3h15.92c1.66,0,3,1.34,3,3s-1.34,3-3,3Z"/>
    </g>
  </g>
</svg>