<svg width="370" height="265" viewBox="0 0 370 265" fill="none" xmlns="http://www.w3.org/2000/svg">
<rect width="370" height="265" fill="#3F9ED8"/>
<g clip-path="url(#clip0_1898_17338)">
<path d="M222.871 68.5042C221.86 75.5907 215.94 80.7808 209.65 80.0964C203.359 79.412 199.078 73.1097 200.089 66.0232C201.101 58.9367 207.021 53.7466 213.311 54.431C219.602 55.1154 223.883 61.4177 222.871 68.5042Z" fill="#F68D39"/>
<path d="M210.754 82.5275C210.305 82.5275 209.849 82.5061 209.393 82.4562C205.967 82.0854 202.875 80.3316 200.695 77.5156C198.209 74.3074 197.133 70.0013 197.746 65.6953C198.935 57.3683 206.031 51.2585 213.568 52.0784C216.994 52.4491 220.086 54.2029 222.266 57.019C224.752 60.2271 225.828 64.5332 225.215 68.8393C224.097 76.6601 217.764 82.5275 210.754 82.5275ZM212.193 56.7481C207.498 56.7481 203.224 60.8759 202.447 66.3583C202.013 69.4025 202.739 72.4039 204.449 74.5997C205.838 76.3892 207.776 77.5013 209.913 77.7366C214.935 78.2784 219.694 73.9937 220.528 68.1691C220.962 65.1321 220.236 62.1235 218.526 59.9277C217.137 58.1383 215.199 57.0261 213.062 56.7908C212.77 56.7623 212.485 56.7409 212.193 56.7409V56.7481Z" fill="#020202"/>
<path d="M168.645 173.711C169.286 166.581 174.935 161.092 181.247 161.455C187.566 161.812 192.16 167.886 191.519 175.015C190.878 182.145 185.229 187.634 178.917 187.271C172.598 186.914 168.004 180.84 168.645 173.711Z" fill="#FFF200"/>
<path d="M179.501 189.659C179.266 189.659 179.024 189.659 178.789 189.637C175.348 189.445 172.171 187.848 169.849 185.153C167.199 182.08 165.902 177.831 166.294 173.497C167.049 165.12 173.824 158.661 181.396 159.081C184.837 159.274 188.014 160.871 190.337 163.566C192.987 166.638 194.283 170.887 193.892 175.222C193.158 183.335 186.782 189.652 179.509 189.652L179.501 189.659ZM171.01 173.925C170.732 176.983 171.615 179.949 173.432 182.052C174.914 183.77 176.908 184.775 179.053 184.904C184.096 185.189 188.634 180.662 189.161 174.801C189.439 171.743 188.556 168.777 186.739 166.674C185.258 164.956 183.263 163.951 181.119 163.822C176.075 163.53 171.544 168.064 171.01 173.925Z" fill="#020202"/>
<path d="M143.648 183.462C153.627 178.058 157.339 165.58 151.939 155.594C146.539 145.607 134.071 141.892 124.092 147.296C114.112 152.701 110.4 165.178 115.801 175.165C121.201 185.151 133.668 188.866 143.648 183.462Z" fill="#4F4F50"/>
<path d="M133.866 188.319C131.928 188.319 129.969 188.069 128.01 187.556C115.793 184.319 108.484 171.743 111.718 159.516C114.952 147.29 127.519 139.975 139.736 143.212C151.953 146.448 159.263 159.024 156.028 171.251C153.314 181.517 144.017 188.319 133.866 188.319ZM116.299 160.728C113.734 170.424 119.533 180.398 129.221 182.964C138.91 185.531 148.876 179.728 151.441 170.032C154.005 160.336 148.206 150.362 138.518 147.796C128.829 145.229 118.863 151.033 116.299 160.728Z" fill="#020202"/>
<path d="M138.399 173.424C142.839 170.922 144.411 165.292 141.91 160.849C139.41 156.407 133.784 154.834 129.345 157.336C124.905 159.838 123.334 165.468 125.834 169.911C128.334 174.354 133.96 175.927 138.399 173.424Z" fill="#F68D39"/>
<path d="M133.866 176.99C132.883 176.99 131.892 176.862 130.902 176.605C124.719 174.965 121.021 168.599 122.66 162.418C124.298 156.23 130.66 152.53 136.836 154.169C143.02 155.809 146.717 162.176 145.079 168.357C143.704 173.554 138.995 176.997 133.866 176.997V176.99ZM133.866 158.518C130.831 158.518 128.053 160.55 127.24 163.623C126.272 167.28 128.459 171.044 132.113 172.007C135.768 172.976 139.529 170.788 140.491 167.13C141.46 163.473 139.273 159.709 135.618 158.746C135.034 158.589 134.443 158.518 133.866 158.518Z" fill="#020202"/>
<path d="M236.855 208.141C246.834 202.737 250.546 190.26 245.146 180.273C239.746 170.286 227.278 166.571 217.299 171.975C207.319 177.38 203.607 189.857 209.008 199.844C214.408 209.831 226.875 213.546 236.855 208.141Z" fill="#4F4F50"/>
<path d="M227.067 213C225.129 213 223.17 212.751 221.211 212.237C208.994 209.001 201.685 196.425 204.919 184.198C206.486 178.273 210.262 173.319 215.555 170.239C220.848 167.159 227.017 166.325 232.937 167.893C238.857 169.462 243.808 173.24 246.886 178.537C249.963 183.834 250.797 190.008 249.229 195.933C246.515 206.199 237.219 213 227.067 213ZM227.039 171.871C223.869 171.871 220.748 172.705 217.934 174.345C213.738 176.791 210.746 180.719 209.5 185.417C206.935 195.113 212.734 205.087 222.422 207.653C232.111 210.22 242.077 204.416 244.642 194.721C245.881 190.022 245.226 185.125 242.782 180.926C240.339 176.726 236.414 173.732 231.719 172.484C230.173 172.071 228.599 171.871 227.039 171.871Z" fill="#020202"/>
<path d="M231.608 198.102C236.048 195.6 237.62 189.97 235.119 185.527C232.619 181.084 226.993 179.511 222.554 182.014C218.114 184.516 216.543 190.146 219.043 194.588C221.543 199.031 227.169 200.604 231.608 198.102Z" fill="#F68D39"/>
<path d="M227.088 201.672C226.091 201.672 225.094 201.543 224.104 201.28C221.112 200.488 218.604 198.57 217.044 195.897C215.484 193.216 215.063 190.087 215.854 187.092C217.493 180.904 223.854 177.204 230.031 178.844C236.214 180.483 239.911 186.85 238.273 193.031C237.482 196.025 235.566 198.535 232.894 200.096C231.099 201.137 229.104 201.672 227.081 201.672H227.088ZM227.074 183.2C224.039 183.2 221.261 185.232 220.449 188.304C219.979 190.072 220.228 191.926 221.147 193.509C222.066 195.091 223.548 196.225 225.322 196.695C227.096 197.166 228.941 196.916 230.522 195.997C232.104 195.077 233.236 193.594 233.706 191.819C234.675 188.162 232.488 184.397 228.834 183.435C228.25 183.278 227.658 183.207 227.081 183.207L227.074 183.2Z" fill="#020202"/>
<path d="M248.866 139.055C242.02 128.497 253.026 110.652 248.303 94.8611C245.418 85.2223 243.352 83.939 236.179 77.8007C226.077 69.153 206.251 60.9543 189.724 63.2927C181.731 64.4263 175.384 65.403 165.652 73.2737C162.233 76.0398 158.806 81.2228 155.373 87.2755C154.518 88.7869 150.393 96.5008 149.959 97.3349C143.818 109.063 137.691 120.961 131.657 124.084C120.487 129.866 111.005 117.853 108.726 126.486C107.914 129.566 107.949 132.411 108.783 135.077C109.616 137.744 111.276 140.239 113.656 142.556C115.244 144.103 117.146 145.564 119.305 146.947C122.183 148.787 125.51 150.484 129.164 152.066C134.044 154.176 139.515 156.094 145.421 157.941C153.3 160.4 211.409 175.792 219.473 177.553C225.521 178.872 231.228 179.913 236.506 180.491C240.467 180.925 248.503 189.21 251.915 189.031C254.473 188.903 255.726 188.632 257.871 188.069C261.091 187.235 260.578 177.71 262.622 175.807C264.667 173.903 266.106 171.451 266.918 168.371L268.364 167.451C270.644 158.818 255.698 149.599 248.852 139.041L248.866 139.055Z" fill="#F68D39"/>
<path d="M251.83 191.42C249.301 191.42 246.309 189.267 242.861 186.793C240.631 185.196 237.582 183.007 236.264 182.857C231.341 182.316 225.685 181.339 218.982 179.877C210.91 178.117 152.616 162.675 144.73 160.215C138.176 158.169 132.783 156.215 128.238 154.248C124.242 152.523 120.908 150.79 118.037 148.951C115.693 147.454 113.663 145.871 112.01 144.26C109.31 141.629 107.465 138.784 106.524 135.79C105.549 132.682 105.52 129.352 106.432 125.88C106.98 123.792 107.949 122.387 109.388 121.582C111.782 120.234 114.61 121.075 117.609 121.959C121.485 123.107 125.873 124.412 130.575 121.974C135.804 119.265 141.709 107.986 147.423 97.0711L147.864 96.2299C148.242 95.5027 152.416 87.6962 153.314 86.1064C157.581 78.5707 160.929 74.0436 164.164 71.4272C174.536 63.0432 181.425 62.0665 189.396 60.9401C206.529 58.5161 227.081 66.893 237.724 75.9971L239 77.0878C245.311 82.4562 247.669 84.4666 250.576 94.1838C253.005 102.304 251.559 110.866 250.277 118.416C248.944 126.273 247.798 133.06 250.854 137.765C253.197 141.379 256.631 144.916 259.951 148.338C266.391 154.982 272.475 161.256 270.679 168.071C270.53 168.649 270.159 169.148 269.654 169.469L268.962 169.911C268.008 172.955 266.441 175.514 264.289 177.525C263.912 178.074 263.52 180.177 263.256 181.581C262.565 185.303 261.782 189.523 258.476 190.379C256.111 190.992 254.693 191.277 252.043 191.413C251.972 191.413 251.894 191.413 251.823 191.413L251.83 191.42ZM112.281 125.617C112.038 125.617 111.846 125.652 111.711 125.724C111.618 125.774 111.305 126.023 111.02 127.1C110.329 129.723 110.336 132.104 111.048 134.371C111.746 136.603 113.185 138.792 115.315 140.866C116.74 142.256 118.514 143.632 120.587 144.958C123.237 146.655 126.357 148.273 130.112 149.899C134.5 151.795 139.743 153.692 146.133 155.688C153.976 158.14 211.957 173.49 219.986 175.243C226.526 176.669 232.018 177.617 236.777 178.145C239.334 178.423 242.383 180.619 245.618 182.943C247.548 184.326 250.782 186.65 251.815 186.679C254.109 186.558 255.185 186.337 257.158 185.823C257.771 185.16 258.305 182.28 258.597 180.719C259.124 177.881 259.573 175.436 261.019 174.089C262.765 172.47 263.947 170.403 264.638 167.779C264.788 167.202 265.158 166.703 265.657 166.382L266.22 166.025C266.526 161.94 261.661 156.936 256.539 151.646C253.062 148.06 249.465 144.352 246.871 140.353C242.811 134.093 244.164 126.094 245.596 117.625C246.843 110.239 248.139 102.603 246.024 95.5455C243.516 87.1757 241.906 85.8069 235.915 80.7024L234.633 79.6045C224.78 71.1706 205.81 63.4139 190.052 65.6383C182.479 66.7076 176.495 67.556 167.134 75.1202C163.572 78.0004 159.889 84.103 157.432 88.4447C156.591 89.9276 152.466 97.6557 152.053 98.4328L151.611 99.2741C145.278 111.372 139.294 122.793 132.74 126.187C126.343 129.502 120.509 127.77 116.249 126.508C114.867 126.094 113.214 125.61 112.266 125.61L112.281 125.617Z" fill="#020202"/>
<path d="M206.978 79.9681C206.978 79.9681 239.285 88.6301 236.514 108.314C233.714 128.197 232.496 138.2 232.496 138.2L194.483 128.54C194.483 128.54 206.821 80.5527 206.978 79.9681Z" fill="#FFF200"/>
<path d="M232.496 140.567C232.303 140.567 232.104 140.545 231.911 140.495L193.899 130.835C193.286 130.678 192.766 130.286 192.445 129.745C192.125 129.203 192.032 128.554 192.189 127.941C192.695 125.98 204.534 79.9396 204.691 79.355C204.855 78.7419 205.247 78.2214 205.795 77.9077C206.344 77.5941 206.992 77.5085 207.598 77.6725C207.94 77.7652 216.082 79.9752 224.011 84.7233C235.01 91.3036 240.147 99.5735 238.871 108.642C236.107 128.269 234.875 138.378 234.861 138.478C234.775 139.155 234.412 139.761 233.849 140.146C233.45 140.417 232.98 140.56 232.51 140.56L232.496 140.567ZM197.368 126.822L230.472 135.234C231.007 131.028 232.203 121.881 234.155 107.979C236.2 93.478 215.648 85.315 208.645 82.9695C206.508 91.268 199.462 118.666 197.368 126.822Z" fill="#020202"/>
<path d="M257.978 196.767C257.329 196.767 256.674 196.681 256.012 196.51L105.385 156.622C103.689 156.173 102.222 155.182 101.26 153.834C100.213 152.366 99.8568 150.591 100.284 148.951L106.453 125.617C106.888 123.984 108.071 122.615 109.709 121.86C111.219 121.161 112.979 121.025 114.674 121.475C115.942 121.81 116.698 123.107 116.363 124.376C116.028 125.645 114.731 126.401 113.463 126.066C112.844 125.902 112.195 125.938 111.697 126.173C111.49 126.265 111.134 126.479 111.041 126.836L104.872 150.17C104.779 150.526 104.986 150.89 105.114 151.075C105.435 151.524 105.976 151.874 106.596 152.045L257.215 191.933C258.405 192.247 259.474 191.783 259.638 191.163L265.807 167.829C266.142 166.56 267.438 165.804 268.706 166.139C269.974 166.475 270.729 167.772 270.395 169.041L264.225 192.375C263.52 195.049 260.913 196.774 257.971 196.774L257.978 196.767Z" fill="#020202"/>
<path d="M201.001 149.272C200.801 149.272 200.595 149.243 200.395 149.193L197.14 148.331C195.872 147.995 195.117 146.698 195.451 145.429C195.786 144.16 197.083 143.404 198.351 143.739L201.606 144.602C202.874 144.937 203.63 146.235 203.295 147.504C203.01 148.566 202.055 149.272 201.001 149.272Z" fill="#020202"/>
<path d="M104.929 143.283L112.851 145.379C116.619 146.377 120.402 144.559 121.25 141.344L123.594 132.475C124.441 129.26 122.055 125.809 118.286 124.811C118.286 124.811 113.449 123.321 109.446 125.652C108.947 125.945 104.338 143.561 104.929 143.276V143.283Z" fill="#E82C41"/>
<path d="M114.945 148.031C114.048 148.031 113.143 147.917 112.245 147.675L105.164 145.8L103.896 146.406L102.792 144.374C102.322 143.483 102.129 143.119 104.566 133.744C107.016 124.319 107.301 124.155 108.249 123.606C112.893 120.904 118.279 122.344 118.92 122.53C123.943 123.877 127.063 128.604 125.88 133.088L123.537 141.957C122.945 144.196 121.392 146.021 119.162 147.09C117.859 147.717 116.413 148.038 114.938 148.038L114.945 148.031ZM107.558 141.522L113.463 143.083C114.724 143.418 116.056 143.311 117.125 142.798C118.08 142.342 118.735 141.608 118.963 140.731L121.307 131.862C121.82 129.937 120.16 127.755 117.688 127.1L117.595 127.071C117.595 127.071 114.197 126.087 111.291 127.363C110.464 129.809 108.356 137.843 107.558 141.501V141.522Z" fill="#020202"/>
<path d="M266.754 166.617C266.555 166.617 266.348 166.589 266.149 166.539L224.325 155.467C221.155 154.626 218.326 155.31 215.911 157.499C213.945 159.281 212.969 161.427 212.955 161.448C212.421 162.639 211.017 163.174 209.828 162.646C208.638 162.111 208.097 160.721 208.624 159.523C210.412 155.46 216.253 148.416 225.536 150.883L267.36 161.955C268.628 162.29 269.383 163.587 269.048 164.856C268.77 165.918 267.809 166.624 266.754 166.624V166.617Z" fill="#020202"/>
<path d="M177.692 173.09L173.104 171.878L181.083 141.707C184.887 127.328 193.792 126.208 194.169 126.173C195.466 126.03 196.641 126.978 196.777 128.283C196.912 129.573 195.993 130.735 194.711 130.892C194.383 130.942 188.563 131.997 185.67 142.927L177.692 173.098V173.09Z" fill="#020202"/>
<path d="M262.16 182.358C256.14 180.761 252.343 175.358 253.682 170.289C255.022 165.22 260.991 162.397 267.018 163.993" fill="#FAFBFC"/>
<path d="M262.159 184.732C261.96 184.732 261.753 184.704 261.554 184.654C254.273 182.729 249.714 176.013 251.388 169.683C253.062 163.352 260.343 159.773 267.623 161.698C268.892 162.033 269.647 163.33 269.312 164.599C268.977 165.868 267.68 166.624 266.412 166.289C261.661 165.034 256.98 167.102 255.976 170.895C254.972 174.695 258.021 178.808 262.765 180.063C264.033 180.398 264.788 181.695 264.453 182.964C264.168 184.027 263.214 184.732 262.159 184.732Z" fill="#020202"/>
<path d="M167.491 162.796C167.291 162.796 167.084 162.767 166.885 162.717L131.508 153.35C130.24 153.014 129.485 151.717 129.82 150.448C130.154 149.179 131.451 148.423 132.719 148.758L168.096 158.126C169.364 158.461 170.119 159.759 169.784 161.028C169.499 162.09 168.545 162.796 167.491 162.796Z" fill="#020202"/>
<path d="M246.758 183.784C246.558 183.784 246.352 183.756 246.152 183.706L186.041 167.786C184.773 167.451 184.018 166.154 184.353 164.885C184.688 163.616 185.984 162.86 187.252 163.195L247.363 179.115C248.631 179.45 249.386 180.747 249.052 182.016C248.774 183.079 247.812 183.784 246.758 183.784Z" fill="#020202"/>
<path d="M207.227 79.9681C207.227 79.9681 185.507 74.3217 178.191 92.8007C170.796 111.465 158.7 118.587 158.7 118.587L194.091 128.369C194.091 128.369 207.078 80.5527 207.234 79.9752L207.227 79.9681Z" fill="#FFF200"/>
<path d="M194.084 130.743C193.87 130.743 193.664 130.714 193.45 130.657L158.059 120.876C157.14 120.619 156.463 119.842 156.342 118.901C156.221 117.953 156.67 117.026 157.489 116.541C157.596 116.477 169.008 109.519 175.975 91.9309C182.372 75.7761 199.598 75.5408 207.819 77.6796C208.431 77.8364 208.951 78.2356 209.272 78.7775C209.593 79.3193 209.678 79.9752 209.514 80.5812C209.357 81.1658 196.898 127.043 196.364 128.996C196.2 129.602 195.794 130.122 195.252 130.436C194.889 130.643 194.483 130.75 194.077 130.75L194.084 130.743ZM163.979 117.582L192.424 125.446C194.625 117.34 202.006 90.1772 204.271 81.8217C198.821 81.0374 185.571 80.6168 180.392 93.6776C175.405 106.268 168.374 113.804 163.979 117.582Z" fill="#020202"/>
<path d="M262.254 184.79L107.32 143.766C104.027 142.894 100.65 144.859 99.7785 148.155L99.5835 148.893C98.712 152.189 100.676 155.568 103.97 156.44L258.903 197.465C262.197 198.337 265.574 196.372 266.445 193.075L266.64 192.338C267.512 189.042 265.548 185.662 262.254 184.79Z" fill="#F9F7F8"/>
<path d="M260.471 200.046C259.751 200.046 259.018 199.953 258.291 199.761L103.355 158.732C98.8024 157.527 96.0811 152.843 97.285 148.288L97.4845 147.539C98.0686 145.343 99.472 143.497 101.452 142.342C103.426 141.194 105.727 140.88 107.928 141.465L262.865 182.494C265.066 183.078 266.904 184.483 268.058 186.465C269.205 188.44 269.518 190.742 268.934 192.938L268.735 193.687C267.723 197.515 264.261 200.046 260.478 200.046H260.471ZM259.502 195.17C261.525 195.704 263.605 194.492 264.14 192.468L264.339 191.719C264.596 190.742 264.46 189.723 263.947 188.839C263.435 187.955 262.615 187.328 261.646 187.071L106.71 146.049C105.734 145.792 104.715 145.928 103.839 146.441C102.956 146.955 102.329 147.774 102.072 148.744L101.873 149.493C101.338 151.517 102.55 153.599 104.573 154.134L259.509 195.163L259.502 195.17Z" fill="#020202"/>
</g>
<defs>
<clipPath id="clip0_1898_17338">
<rect width="174" height="161" fill="white" transform="translate(97 52)"/>
</clipPath>
</defs>
</svg>
