<svg width="370" height="265" viewBox="0 0 370 265" fill="none" xmlns="http://www.w3.org/2000/svg">
<rect width="370" height="265" fill="#F68D39"/>
<g clip-path="url(#clip0_1898_17264)">
<path d="M172.68 175.234C167.597 167.177 155.934 166.885 146.517 168.646C141.397 169.608 136.361 170.889 131.362 172.327C119.778 175.647 107.181 173.372 97.7533 165.917C97.4105 165.651 97.0783 165.374 96.7462 165.097C95.8498 170.758 96.9254 176.677 99.6093 181.748C83.8382 185.69 66.7225 187.279 51.6475 181.225C68.3044 202.069 100.569 208.714 124.223 196.177C122.609 203.355 117.015 210.93 110.266 213.983C124.402 214.851 139.14 214.789 151.99 208.891C164.845 202.994 180.194 187.138 172.686 175.234H172.68Z" fill="#E82C41"/>
<path d="M121.929 217C117.959 217 113.999 216.828 110.092 216.587C108.884 216.514 107.882 215.636 107.661 214.454C107.439 213.272 108.056 212.096 109.158 211.6C113.271 209.738 117.136 205.749 119.546 201.17C108.868 205.305 96.7461 206.241 84.7609 203.773C70.5031 200.835 58.0065 193.406 49.5646 182.846C48.8212 181.915 48.8053 180.603 49.5224 179.657C50.2396 178.705 51.5156 178.355 52.6229 178.799C64.3181 183.499 78.4915 183.875 95.8708 179.944C93.9462 175.066 93.324 169.755 94.1255 164.689C94.2731 163.753 94.9164 162.974 95.8075 162.645C96.6986 162.315 97.7005 162.488 98.4281 163.099C98.7392 163.361 99.0609 163.622 99.3773 163.873C108.03 170.717 119.709 172.939 130.614 169.812C136.456 168.139 141.349 166.952 146.01 166.079C164.676 162.582 172.122 169.441 174.9 173.848C177.394 177.801 177.937 182.474 176.466 187.368C173.456 197.39 162.419 206.978 153.076 211.265C143.268 215.761 132.565 217.005 121.913 217.005L121.929 217ZM118.091 211.72C129.369 212.018 140.78 211.15 150.877 206.518C158.95 202.816 168.895 194.321 171.431 185.873C172.47 182.412 172.137 179.301 170.445 176.619C165.457 168.709 152.39 170.204 147.002 171.219C142.504 172.06 137.769 173.21 132.085 174.842C120.748 178.088 108.673 176.305 99.082 170.1C99.2349 173.686 100.205 177.273 101.929 180.535C102.304 181.246 102.33 182.082 102.003 182.814C101.676 183.546 101.022 184.085 100.242 184.283C84.9613 188.1 71.8582 188.868 60.5111 186.578C67.5081 192.486 76.2294 196.679 85.8418 198.66C98.8922 201.347 112.08 199.648 122.973 193.871C123.88 193.39 124.993 193.479 125.81 194.096C126.633 194.713 127.012 195.748 126.791 196.747C125.546 202.294 122.283 207.747 118.091 211.725V211.72Z" fill="#020202"/>
<path d="M148.478 177.706C144.354 179.683 132.68 182.605 128.615 180.514C132.121 185.951 139.54 188.544 145.709 186.495C143.89 190.787 140.711 194.499 136.735 196.972C141.802 196.538 153.55 194.248 158.343 192.543C161.744 191.336 165.135 189.736 167.502 187.033C169.87 184.33 170.987 180.294 169.416 177.074C165.852 169.76 153.434 175.338 148.483 177.706H148.478Z" fill="#FFEC00"/>
<path d="M136.735 199.58C135.612 199.58 134.6 198.869 134.236 197.798C133.851 196.653 134.305 195.393 135.333 194.755C137.426 193.453 139.272 191.759 140.764 189.804C135.085 189.637 129.496 186.73 126.395 181.925C125.752 180.927 125.863 179.625 126.669 178.752C127.476 177.879 128.773 177.649 129.833 178.198C131.832 179.228 141.418 178.193 147.334 175.359C160.337 169.133 168.562 169.326 171.789 175.939C173.698 179.855 172.775 185.005 169.49 188.748C166.553 192.104 162.467 193.85 159.235 195.001C154.246 196.778 142.267 199.12 136.962 199.57C136.888 199.575 136.809 199.58 136.735 199.58ZM145.71 183.875C146.432 183.875 147.133 184.168 147.645 184.712C148.351 185.465 148.546 186.557 148.14 187.504C147.292 189.501 146.179 191.388 144.845 193.113C149.601 192.225 154.737 191.048 157.447 190.081C160.078 189.145 163.368 187.76 165.504 185.318C167.392 183.159 168.024 180.237 167.033 178.208C165.863 175.809 161.892 174.178 149.617 180.059C147.518 181.063 141.792 182.929 136.382 183.593C139.071 184.696 142.14 184.921 144.866 184.011C145.14 183.923 145.425 183.875 145.704 183.875H145.71Z" fill="#020202"/>
<path d="M311.33 158.512L309.21 158.983L305.281 141.581L307.4 141.11C312.242 140.035 317.059 143.059 318.144 147.865C319.228 152.666 316.178 157.441 311.331 158.517L311.33 158.512Z" fill="#FFF200"/>
<path d="M309.215 161.583C308.719 161.583 308.229 161.442 307.802 161.176C307.211 160.804 306.795 160.214 306.642 159.539L302.714 142.135C302.397 140.729 303.288 139.328 304.712 139.014L306.832 138.544C313.091 137.153 319.323 141.074 320.72 147.28C322.123 153.485 318.168 159.659 311.91 161.05L309.79 161.521C309.6 161.562 309.405 161.583 309.215 161.583ZM308.435 143.562L311.203 155.833C314.361 154.891 316.297 151.661 315.569 148.424C314.836 145.183 311.693 143.087 308.435 143.568V143.562Z" fill="#020202"/>
<path d="M198.687 51.9994C231.088 44.8109 260.136 66.1882 267.518 98.8788L272.58 121.296C273.023 123.267 278.17 123.806 280.126 123.372L283.316 122.666C294.078 120.277 304.792 127.147 307.244 138.005L313.909 167.528L287.692 173.346L278.222 175.448L170.366 199.387L153.393 124.208C146.011 91.5178 166.296 59.1931 198.697 51.9994H198.687Z" fill="#F494A6"/>
<path d="M170.35 201.996C169.854 201.996 169.364 201.854 168.937 201.588C168.346 201.217 167.93 200.626 167.777 199.952L150.803 124.773C143.121 90.7284 164.339 56.9399 198.106 49.4429C214.315 45.8461 230.613 49.0038 243.996 58.341C257.057 67.4481 266.321 81.6421 270.086 98.3037L275.048 120.287C275.933 120.747 278.433 121.061 279.54 120.815L282.73 120.11C288.63 118.797 294.699 119.885 299.819 123.168C304.924 126.441 308.472 131.501 309.806 137.43L316.471 166.952C316.787 168.359 315.896 169.76 314.473 170.074L170.925 201.933C170.735 201.975 170.54 201.996 170.35 201.996ZM211.162 53.228C207.26 53.228 203.279 53.6567 199.261 54.5507C168.33 61.415 148.905 92.4065 155.955 123.639L172.348 196.266L310.75 165.551L304.66 138.575C303.626 133.995 300.89 130.085 296.956 127.565C293.033 125.05 288.393 124.219 283.885 125.217L280.695 125.923C278.132 126.493 270.961 126.106 270.001 121.866L264.939 99.4486C258.623 71.458 236.561 53.228 211.156 53.228H211.162Z" fill="#020202"/>
<path d="M211.388 154.463C210.18 154.463 209.094 153.637 208.82 152.419C208.503 151.012 209.394 149.611 210.818 149.297L220.198 147.217C221.617 146.898 223.03 147.787 223.346 149.198C223.663 150.604 222.772 152.006 221.348 152.319L211.968 154.4C211.772 154.442 211.577 154.463 211.388 154.463Z" fill="#020202"/>
<path d="M212.179 192.711C210.972 192.711 209.886 191.885 209.611 190.667L204.597 168.463C204.281 167.057 205.172 165.656 206.595 165.342C208.014 165.023 209.427 165.912 209.743 167.324L214.758 189.527C215.074 190.933 214.183 192.334 212.759 192.648C212.564 192.69 212.369 192.711 212.179 192.711Z" fill="#020202"/>
<path d="M283.989 185.512C290.312 185.512 295.437 180.43 295.437 174.162C295.437 167.894 290.312 162.812 283.989 162.812C277.667 162.812 272.542 167.894 272.542 174.162C272.542 180.43 277.667 185.512 283.989 185.512Z" fill="#241F20"/>
<path d="M283.958 188.131C281.316 188.131 278.727 187.389 276.444 185.956C273.264 183.959 271.066 180.854 270.243 177.215C268.545 169.702 273.333 162.221 280.91 160.538C284.58 159.722 288.355 160.376 291.53 162.373C294.704 164.37 296.908 167.475 297.73 171.114C298.553 174.753 297.894 178.491 295.88 181.643C293.865 184.796 290.733 186.976 287.063 187.791C286.03 188.021 284.991 188.136 283.958 188.136V188.131ZM284.005 165.426C283.357 165.426 282.708 165.499 282.065 165.64C279.766 166.153 277.81 167.517 276.549 169.488C275.289 171.459 274.878 173.796 275.395 176.075C275.906 178.355 277.288 180.294 279.275 181.544C281.263 182.793 283.62 183.201 285.919 182.694C288.218 182.187 290.174 180.817 291.435 178.846C292.695 176.875 293.106 174.538 292.589 172.259C292.078 169.979 290.696 168.04 288.709 166.79C287.28 165.891 285.661 165.431 284.005 165.431V165.426Z" fill="black"/>
<path d="M283.99 177.053C285.6 177.053 286.906 175.759 286.906 174.162C286.906 172.565 285.6 171.271 283.99 171.271C282.379 171.271 281.074 172.565 281.074 174.162C281.074 175.759 282.379 177.053 283.99 177.053Z" fill="black"/>
<path d="M190.629 206.23C196.951 206.23 202.076 201.149 202.076 194.88C202.076 188.612 196.951 183.53 190.629 183.53C184.306 183.53 179.181 188.612 179.181 194.88C179.181 201.149 184.306 206.23 190.629 206.23Z" fill="#241F20"/>
<path d="M190.602 208.85C187.961 208.85 185.372 208.107 183.088 206.675C179.909 204.678 177.71 201.572 176.888 197.934C175.19 190.421 179.977 182.94 187.555 181.256C191.224 180.441 195 181.094 198.174 183.091C201.348 185.088 203.552 188.194 204.375 191.832C206.073 199.345 201.285 206.826 193.708 208.51C192.674 208.74 191.636 208.855 190.602 208.855V208.85ZM190.644 186.144C189.996 186.144 189.347 186.218 188.704 186.359C183.964 187.41 180.969 192.094 182.029 196.794C182.54 199.073 183.922 201.013 185.909 202.262C187.897 203.512 190.254 203.92 192.553 203.412C197.293 202.362 200.288 197.677 199.229 192.977C198.717 190.698 197.336 188.758 195.348 187.509C193.919 186.61 192.3 186.15 190.644 186.15V186.144Z" fill="black"/>
<path d="M190.629 197.771C192.239 197.771 193.545 196.477 193.545 194.88C193.545 193.284 192.239 191.989 190.629 191.989C189.018 191.989 187.713 193.284 187.713 194.88C187.713 196.477 189.018 197.771 190.629 197.771Z" fill="black"/>
<path d="M178.227 75.196L192.421 138.084L169.226 143.233L164.174 120.863C160.288 103.647 166.189 86.5199 178.221 75.2013L178.227 75.196Z" fill="#179EDB"/>
<path d="M169.231 145.842C168.736 145.842 168.245 145.701 167.818 145.434C167.228 145.063 166.811 144.472 166.658 143.798L161.607 121.427C157.679 104.028 163.352 85.5893 176.413 73.2983C177.104 72.65 178.084 72.42 178.997 72.6918C179.904 72.9637 180.594 73.7008 180.8 74.6209L194.995 137.508C195.311 138.915 194.42 140.316 192.996 140.63L169.801 145.779C169.611 145.821 169.416 145.842 169.226 145.842H169.231ZM176.735 80.5495C167.391 91.4132 163.579 106.229 166.753 120.287L171.23 140.107L189.279 136.102L176.74 80.5495H176.735Z" fill="#020202"/>
<path d="M188.905 66.9619C192.022 65.5294 195.338 64.395 198.829 63.6212C225.109 57.7868 251.183 74.1818 257.062 100.243L262.114 122.614L204.36 135.433L188.905 66.9619Z" fill="#179EDB"/>
<path d="M204.36 138.047C203.152 138.047 202.066 137.221 201.792 136.003L186.337 67.5318C186.068 66.3346 186.675 65.106 187.798 64.5884C191.136 63.0514 194.658 61.8698 198.254 61.07C211.652 58.0952 225.414 60.474 237.009 67.7618C248.604 75.0548 256.64 86.3839 259.64 99.6682L264.692 122.039C264.845 122.713 264.718 123.424 264.344 124.01C263.969 124.595 263.374 125.008 262.693 125.16L204.94 137.979C204.745 138.021 204.55 138.042 204.36 138.042V138.047ZM191.953 68.4989L206.358 132.312L258.966 120.638L254.489 100.813C251.8 88.8933 244.586 78.7249 234.183 72.1794C223.78 65.634 211.425 63.501 199.403 66.1725C196.862 66.7371 194.363 67.5161 191.953 68.4937V68.4989Z" fill="#020202"/>
<path d="M201.471 122.614L211.61 133.823L226.459 130.529L195.539 96.3432L201.471 122.614Z" fill="white"/>
<path d="M245.346 126.336L260.2 123.043L205.547 62.6122C203.322 62.7952 201.081 63.1245 198.835 63.6212C196.066 64.2329 193.414 65.0746 190.878 66.1097L245.346 126.336Z" fill="white"/>
<path d="M204.36 138.047C203.152 138.047 202.066 137.221 201.792 136.003L186.337 67.5318C186.068 66.3346 186.675 65.106 187.798 64.5884C191.136 63.0514 194.658 61.8698 198.254 61.07C211.652 58.0952 225.414 60.474 237.009 67.7618C248.604 75.0548 256.64 86.3839 259.64 99.6682L264.692 122.039C264.845 122.713 264.718 123.424 264.344 124.01C263.969 124.595 263.374 125.008 262.693 125.16L204.94 137.979C204.745 138.021 204.55 138.042 204.36 138.042V138.047ZM191.953 68.4989L206.358 132.312L258.966 120.638L254.489 100.813C251.8 88.8933 244.586 78.7249 234.183 72.1794C223.78 65.634 211.425 63.501 199.403 66.1725C196.862 66.7371 194.363 67.5161 191.953 68.4937V68.4989Z" fill="#020202"/>
<path d="M178.227 75.196L192.421 138.084L169.226 143.233L164.174 120.863C160.288 103.647 166.189 86.5199 178.221 75.2013L178.227 75.196Z" fill="#179EDB"/>
<path d="M169.231 145.842C168.736 145.842 168.245 145.701 167.818 145.434C167.228 145.063 166.811 144.472 166.658 143.798L161.607 121.427C157.679 104.028 163.352 85.5893 176.413 73.2983C177.104 72.65 178.084 72.42 178.997 72.6918C179.904 72.9637 180.594 73.7008 180.8 74.6209L194.995 137.508C195.311 138.915 194.42 140.316 192.996 140.63L169.801 145.779C169.611 145.821 169.416 145.842 169.226 145.842H169.231ZM176.735 80.5495C167.391 91.4132 163.579 106.229 166.753 120.287L171.23 140.107L189.279 136.102L176.74 80.5495H176.735Z" fill="#020202"/>
<path d="M184.759 104.143L178.827 77.8675L177.256 76.1318C174.05 79.3209 171.314 82.9334 169.12 86.8544L184.754 104.143H184.759Z" fill="white"/>
<path d="M169.231 145.842C168.736 145.842 168.245 145.701 167.818 145.434C167.228 145.063 166.811 144.472 166.658 143.798L161.607 121.427C157.679 104.028 163.352 85.5893 176.413 73.2983C177.104 72.65 178.084 72.42 178.997 72.6918C179.904 72.9637 180.594 73.7008 180.8 74.6209L194.995 137.508C195.311 138.915 194.42 140.316 192.996 140.63L169.801 145.779C169.611 145.821 169.416 145.842 169.226 145.842H169.231ZM176.735 80.5495C167.391 91.4132 163.579 106.229 166.753 120.287L171.23 140.107L189.279 136.102L176.74 80.5495H176.735Z" fill="#020202"/>
</g>
<defs>
<clipPath id="clip0_1898_17264">
<rect width="272" height="169" fill="white" transform="translate(49 48)"/>
</clipPath>
</defs>
</svg>
