<svg width="370" height="265" viewBox="0 0 370 265" fill="none" xmlns="http://www.w3.org/2000/svg">
<rect width="370" height="265" fill="#F595A6"/>
<g clip-path="url(#clip0_1898_17293)">
<path d="M218.616 186.473L215.387 178.666L219.009 148.503C220.41 136.845 212.138 126.252 200.532 124.846L162.645 120.25C151.04 118.844 140.496 127.154 139.096 138.813L135.473 168.975L130.125 175.741C128.179 178.394 126.95 181.521 126.557 184.801L124.615 200.947C124.138 204.897 126.906 208.483 130.794 208.951L210.098 218.568C213.986 219.041 217.52 216.221 217.997 212.27L219.938 196.124C220.332 192.844 219.879 189.515 218.616 186.473Z" fill="#004B93"/>
<path d="M210.958 220.299C210.609 220.299 210.255 220.279 209.901 220.235L130.597 210.618C125.805 210.036 122.379 205.607 122.963 200.75L124.905 184.603C125.333 181.043 126.675 177.635 128.783 174.755C128.793 174.74 128.808 174.72 128.823 174.705L133.88 168.309L137.449 138.615C138.181 132.535 141.224 127.1 146.021 123.317C150.819 119.535 156.801 117.858 162.852 118.588L200.739 123.184C213.239 124.698 222.18 136.149 220.671 148.706L217.097 178.429L220.16 185.826C221.526 189.131 222.022 192.76 221.595 196.321L219.653 212.467C219.373 214.82 218.203 216.921 216.365 218.385C214.802 219.633 212.914 220.294 210.958 220.294V220.299ZM131.452 176.757C129.693 179.169 128.572 182.019 128.213 185.003L126.272 201.149C125.908 204.177 128.026 206.934 130.995 207.294L210.299 216.911C211.735 217.084 213.15 216.679 214.291 215.772C215.436 214.859 216.163 213.543 216.34 212.073L218.282 195.927C218.641 192.938 218.223 189.89 217.078 187.119L213.848 179.312C213.74 179.045 213.696 178.754 213.73 178.468L217.353 148.306C218.641 137.585 211.007 127.805 200.336 126.513L162.448 121.917C157.273 121.29 152.175 122.725 148.081 125.951C143.982 129.181 141.381 133.822 140.757 139.015L137.134 169.177C137.095 169.483 136.977 169.774 136.785 170.015L131.457 176.757H131.452Z" fill="black"/>
<path d="M161.126 129.781L199.413 134.423C206.504 135.282 211.566 141.758 210.709 148.872L207.24 177.675L143.256 169.918L146.725 141.114C147.582 134 154.036 128.921 161.126 129.781Z" fill="#1D9DDB"/>
<path d="M207.237 179.356C207.168 179.356 207.104 179.356 207.036 179.346L143.053 171.589C142.138 171.475 141.485 170.642 141.598 169.724L145.058 140.923C145.525 137.037 147.472 133.56 150.544 131.144C153.616 128.727 157.44 127.657 161.318 128.126L199.604 132.766C207.601 133.738 213.322 141.052 212.359 149.075L208.899 177.886C208.845 178.325 208.618 178.73 208.269 179.006C207.975 179.238 207.611 179.361 207.237 179.361V179.356ZM145.112 168.462L205.782 175.82L209.041 148.676C209.783 142.487 205.369 136.84 199.201 136.095L160.915 131.454C157.926 131.094 154.972 131.918 152.603 133.787C150.234 135.651 148.73 138.334 148.371 141.333L145.112 168.472V168.462Z" fill="#020202"/>
<path d="M127.235 186.508L134.326 187.367C135.56 187.517 136.444 188.647 136.295 189.886L135.479 196.662C135.33 197.901 134.203 198.788 132.968 198.638L125.878 197.778L127.236 186.503L127.235 186.508Z" fill="#F5002A"/>
<path d="M133.241 200.331C133.084 200.331 132.922 200.321 132.765 200.301L125.677 199.443C124.762 199.329 124.109 198.496 124.222 197.579L125.578 186.305C125.632 185.866 125.859 185.461 126.207 185.185C126.556 184.909 126.999 184.786 127.436 184.84L134.524 185.698C136.672 185.96 138.211 187.922 137.95 190.082L137.134 196.859C137.011 197.904 136.485 198.836 135.66 199.487C134.962 200.035 134.116 200.331 133.241 200.331ZM133.163 196.977C133.374 197.002 133.526 196.913 133.595 196.854C133.669 196.799 133.792 196.671 133.816 196.459L134.632 189.683C134.672 189.358 134.441 189.067 134.121 189.027L128.69 188.366L127.736 196.316L133.168 196.977H133.163Z" fill="#020202"/>
<path d="M218.202 208.98L211.111 208.12C209.877 207.971 208.993 206.84 209.142 205.601L209.958 198.825C210.107 197.587 211.234 196.7 212.469 196.849L219.559 197.709L218.201 208.985L218.202 208.98Z" fill="#F5002A"/>
<path d="M218.208 210.653C218.139 210.653 218.075 210.653 218.007 210.643L210.919 209.785C208.771 209.523 207.232 207.56 207.493 205.4L208.309 198.624C208.431 197.579 208.957 196.647 209.783 195.996C210.609 195.345 211.636 195.059 212.678 195.182L219.766 196.04C220.681 196.153 221.334 196.987 221.221 197.904L219.865 209.178C219.81 209.617 219.584 210.021 219.235 210.298C218.94 210.529 218.577 210.653 218.203 210.653H218.208ZM212.202 198.501C212.029 198.501 211.902 198.575 211.843 198.629C211.769 198.683 211.646 198.812 211.622 199.024L210.806 205.8C210.766 206.12 210.997 206.416 211.317 206.456L216.748 207.117L217.702 199.167L212.27 198.506C212.246 198.506 212.221 198.506 212.197 198.506L212.202 198.501Z" fill="#020202"/>
<path d="M130.08 212.391L141.459 213.77L140.177 224.414C139.961 226.211 138.331 227.494 136.54 227.277L131.651 226.684C129.86 226.467 128.581 224.831 128.798 223.035L130.08 212.391Z" fill="#241F20"/>
<path d="M136.938 228.974C136.736 228.974 136.535 228.964 136.333 228.939L131.443 228.348C128.739 228.022 126.807 225.546 127.132 222.839L128.611 210.529L143.303 212.31L141.824 224.614C141.666 225.926 141.008 227.1 139.971 227.918C139.091 228.609 138.034 228.974 136.933 228.974H136.938ZM131.531 214.253L130.45 223.233C130.346 224.111 130.971 224.91 131.846 225.019L136.736 225.61C137.159 225.66 137.582 225.546 137.916 225.28C138.25 225.014 138.467 224.634 138.516 224.21L139.597 215.229L131.531 214.253Z" fill="black"/>
<path d="M199.981 220.866L211.361 222.246L210.079 232.89C209.863 234.687 208.233 235.969 206.442 235.752L201.552 235.16C199.762 234.942 198.483 233.307 198.7 231.51L199.981 220.866Z" fill="#241F20"/>
<path d="M206.834 237.451C206.633 237.451 206.436 237.442 206.235 237.417L201.344 236.825C198.64 236.5 196.709 234.024 197.033 231.316L198.513 219.007L213.205 220.787L211.725 233.092C211.568 234.404 210.909 235.577 209.872 236.396C208.992 237.086 207.935 237.451 206.834 237.451ZM206.633 234.088C207.056 234.137 207.473 234.024 207.812 233.758C208.147 233.491 208.363 233.112 208.412 232.687L209.489 223.707L201.423 222.73L200.341 231.711C200.238 232.589 200.862 233.388 201.737 233.496L206.628 234.088H206.633Z" fill="black"/>
<path d="M217.769 214.209L124.388 202.887L123.342 211.573L216.723 222.894L217.769 214.209Z" fill="#004B93"/>
<path d="M216.719 224.575C216.65 224.575 216.586 224.575 216.517 224.565L123.136 213.242C122.221 213.128 121.568 212.295 121.681 211.378L122.723 202.693C122.777 202.254 123.003 201.849 123.352 201.573C123.701 201.297 124.143 201.174 124.581 201.228L217.962 212.551C218.877 212.665 219.53 213.498 219.417 214.415L218.375 223.1C218.321 223.539 218.095 223.943 217.746 224.22C217.451 224.451 217.088 224.575 216.714 224.575H216.719ZM125.195 210.115L215.259 221.039L215.903 215.678L125.839 204.754L125.195 210.115Z" fill="black"/>
<path d="M192.054 194.689C191.985 194.689 191.921 194.689 191.852 194.679L155.537 190.275C154.623 190.161 153.969 189.328 154.083 188.411C154.191 187.493 155.021 186.837 155.941 186.951L192.255 191.355C193.169 191.468 193.823 192.302 193.71 193.219C193.607 194.067 192.889 194.694 192.054 194.694V194.689Z" fill="black"/>
<path d="M188.797 192.616L159.011 189.005L157.588 200.814L187.375 204.426L188.797 192.616Z" fill="#E7E1DB"/>
<path d="M187.369 206.101C187.3 206.101 187.237 206.101 187.168 206.091L157.381 202.481C156.466 202.367 155.813 201.534 155.926 200.617L157.346 188.805C157.4 188.366 157.627 187.962 157.975 187.686C158.324 187.41 158.767 187.286 159.204 187.34L188.991 190.95C189.906 191.064 190.559 191.897 190.446 192.815L189.026 204.626C188.972 205.065 188.746 205.469 188.397 205.746C188.102 205.977 187.738 206.101 187.364 206.101H187.369ZM159.44 199.354L185.914 202.565L186.932 194.077L160.458 190.867L159.44 199.354Z" fill="#020202"/>
<path d="M233.618 239L114.666 238.97C113.747 238.97 113 238.221 113 237.294C113 236.366 113.747 235.622 114.671 235.622L233.623 235.651C234.547 235.651 235.294 236.401 235.289 237.328C235.289 238.255 234.542 239 233.618 239Z" fill="#020202"/>
<path d="M250.448 212.965C250.728 212.216 250.891 211.402 250.891 210.554C250.891 206.766 247.838 203.694 244.068 203.694C240.298 203.694 237.241 206.761 237.241 210.549C237.241 211.989 237.683 213.326 238.44 214.425C234.857 214.632 232.011 217.606 232.011 221.261C232.011 225.048 235.063 228.121 238.833 228.121C241.198 228.121 243.282 226.912 244.506 225.078C245.631 225.896 247.007 226.39 248.507 226.39C252.277 226.39 255.334 223.322 255.334 219.535C255.334 216.423 253.275 213.804 250.448 212.961V212.965Z" fill="#E6E1DD"/>
<path d="M238.833 229.797C234.149 229.797 230.339 225.97 230.339 221.266C230.339 217.577 232.689 214.411 235.997 213.232C235.712 212.374 235.569 211.471 235.569 210.554C235.569 205.849 239.379 202.022 244.063 202.022C248.747 202.022 252.557 205.849 252.557 210.554C252.557 211.032 252.517 211.506 252.434 211.979C255.182 213.429 257 216.344 256.995 219.539C256.995 221.818 256.111 223.958 254.508 225.571C252.906 227.184 250.772 228.071 248.502 228.071C247.238 228.071 246.009 227.79 244.884 227.253C243.301 228.87 241.133 229.797 238.833 229.797ZM244.063 205.371C241.222 205.371 238.907 207.694 238.907 210.554C238.907 211.604 239.221 212.62 239.811 213.483C240.15 213.981 240.2 214.627 239.934 215.17C239.669 215.712 239.133 216.068 238.533 216.107C235.81 216.265 233.677 218.533 233.677 221.271C233.677 224.126 235.987 226.454 238.833 226.454C240.553 226.454 242.156 225.596 243.114 224.156C243.365 223.776 243.763 223.519 244.21 223.44C244.658 223.362 245.12 223.465 245.484 223.736C246.373 224.382 247.415 224.728 248.502 224.728C249.878 224.728 251.171 224.19 252.144 223.214C253.117 222.237 253.658 220.935 253.658 219.549C253.658 217.271 252.139 215.229 249.966 214.583C249.524 214.45 249.15 214.139 248.944 213.725C248.738 213.311 248.713 212.823 248.875 212.389C249.096 211.797 249.209 211.18 249.209 210.569C249.209 207.713 246.899 205.386 244.053 205.386L244.063 205.371Z" fill="#020202"/>
<path d="M169.158 174.908C168.563 174.908 167.988 174.587 167.688 174.025C167.251 173.211 167.555 172.195 168.366 171.756C177.681 166.721 184.159 156.616 184.872 146.018C185.246 140.445 184.184 134.981 183.063 129.201C182.675 127.203 182.272 125.137 181.943 123.085C180.276 112.778 181.274 104.917 184.99 99.0582C185.487 98.279 186.519 98.0472 187.295 98.5453C188.072 99.0434 188.303 100.079 187.807 100.858C184.553 105.992 183.712 113.089 185.241 122.553C185.565 124.55 185.959 126.587 186.342 128.56C187.458 134.3 188.613 140.233 188.205 146.245C187.413 157.967 180.247 169.138 169.949 174.705C169.699 174.844 169.428 174.908 169.158 174.908Z" fill="#020202"/>
<path d="M181.329 99.2308C180.611 101.815 178.64 104.735 176.133 106.056C176.059 106.096 180.98 107.679 184.701 107.141C188.943 106.53 190.004 105.834 191.705 104.749C189.144 103.344 187.399 101.046 186.854 98.6489" fill="#E82A41"/>
<path d="M183.039 108.926C181.461 108.926 179.898 108.7 178.723 108.468C176.349 108.004 174.914 107.723 174.545 106.574C174.295 105.8 174.639 104.952 175.356 104.572C177.259 103.571 179.053 101.189 179.721 98.782C179.967 97.8894 180.891 97.3715 181.776 97.6181C182.665 97.8647 183.182 98.7919 182.936 99.6796C182.444 101.46 181.353 103.561 179.795 105.262C181.25 105.519 182.99 105.696 184.464 105.484C186.465 105.198 187.659 104.907 188.574 104.552C186.893 103.028 185.698 101.08 185.231 99.0236C185.025 98.1211 185.585 97.2236 186.485 97.0164C187.389 96.8093 188.279 97.3715 188.485 98.274C188.942 100.276 190.446 102.145 192.511 103.275C193.027 103.561 193.356 104.098 193.376 104.69C193.396 105.282 193.101 105.839 192.604 106.16C190.609 107.432 189.291 108.172 184.941 108.798C184.322 108.887 183.678 108.926 183.039 108.926Z" fill="#020202"/>
<path d="M180.873 99.2797C196.739 99.0963 209.417 82.9187 209.19 63.1459C208.963 43.3731 195.917 27.4928 180.051 27.6762C164.184 27.8596 151.506 44.0372 151.733 63.81C151.96 83.5827 165.006 99.4631 180.873 99.2797Z" fill="#E82A41"/>
<path d="M180.601 100.952C172.53 100.952 164.926 97.1101 159.165 90.1022C153.419 83.114 150.185 73.7881 150.067 63.8458C149.821 43.187 163.26 26.2071 180.016 26C180.119 26 180.222 26 180.326 26C188.397 26 196.001 29.8418 201.761 36.8497C207.508 43.8379 210.742 53.1638 210.86 63.1061C211.106 83.7699 197.672 100.75 180.911 100.952C180.807 100.952 180.704 100.952 180.601 100.952ZM180.326 29.3486C180.237 29.3486 180.149 29.3486 180.06 29.3486C165.142 29.5311 153.183 44.987 153.409 63.8064C153.517 72.9892 156.476 81.5704 161.746 87.9717C166.858 94.1906 173.547 97.6033 180.611 97.6033C180.699 97.6033 180.788 97.6033 180.876 97.6033C195.799 97.4208 207.753 81.9649 207.527 63.1455C207.419 53.9627 204.46 45.3816 199.191 38.9802C194.079 32.7614 187.389 29.3486 180.326 29.3486Z" fill="#020202"/>
<path d="M158.206 68.452C157.351 68.452 156.624 67.7961 156.545 66.9281C155.557 55.8762 159.622 44.5826 167.418 36.7166C168.067 36.0606 169.123 36.0606 169.777 36.7116C170.431 37.3626 170.436 38.4229 169.782 39.0788C162.675 46.2495 158.968 56.5469 159.868 66.6273C159.951 67.5495 159.273 68.3633 158.354 68.4471C158.305 68.4471 158.251 68.452 158.202 68.452H158.206Z" fill="white"/>
</g>
<defs>
<clipPath id="clip0_1898_17293">
<rect width="144" height="213" fill="white" transform="translate(113 26)"/>
</clipPath>
</defs>
</svg>
